<svg id="SvgjsSvg1048" width="590" height="349" xmlns="http://www.w3.org/2000/svg" version="1.1" xmlns:xlink="http://www.w3.org/1999/xlink" xmlns:svgjs="http://svgjs.com/svgjs"><defs id="SvgjsDefs1049"><marker id="SvgjsMarker1116" markerWidth="12" markerHeight="8" refX="9" refY="4" viewBox="0 0 12 8" orient="auto" markerUnits="userSpaceOnUse" stroke-dasharray="0,0"><path id="SvgjsPath1117" d="M0,0 L12,4 L0,8 L0,0" fill="#323232" stroke="#323232" stroke-width="1"></path></marker><marker id="SvgjsMarker1124" markerWidth="12" markerHeight="8" refX="9" refY="4" viewBox="0 0 12 8" orient="auto" markerUnits="userSpaceOnUse" stroke-dasharray="0,0"><path id="SvgjsPath1125" d="M0,0 L12,4 L0,8 L0,0" fill="#323232" stroke="#323232" stroke-width="1"></path></marker><marker id="SvgjsMarker1128" markerWidth="12" markerHeight="8" refX="9" refY="4" viewBox="0 0 12 8" orient="auto" markerUnits="userSpaceOnUse" stroke-dasharray="0,0"><path id="SvgjsPath1129" d="M0,0 L12,4 L0,8 L0,0" fill="#323232" stroke="#323232" stroke-width="1"></path></marker></defs><g id="SvgjsG1050" transform="translate(293,65.00260186195374)"><path id="SvgjsPath1051" d="M 0 4Q 0 0 4 0L 104 0Q 108 0 108 4L 108 64Q 108 68 104 68L 4 68Q 0 68 0 64Z" stroke="rgba(50,50,50,1)" stroke-width="2" fill-opacity="1" fill="#ffffff"></path><g id="SvgjsG1052"><text id="SvgjsText1053" font-family="微软雅黑" text-anchor="start" font-size="13px" width="88px" fill="#323232" font-weight="400" align="middle" lineHeight="125%" anchor="start" family="微软雅黑" size="13px" weight="400" font-style="" opacity="1" y="6.875" transform="rotate(0)"><tspan id="SvgjsTspan1054" dy="16" x="10"><tspan id="SvgjsTspan1055" style="text-decoration:;">Class A {</tspan></tspan><tspan id="SvgjsTspan1056" dy="16" x="10"><tspan id="SvgjsTspan1057" style="text-decoration:;">B b = new B();</tspan></tspan><tspan id="SvgjsTspan1058" dy="16" x="10"><tspan id="SvgjsTspan1059" style="text-decoration:;">}</tspan></tspan></text></g></g><g id="SvgjsG1060" transform="translate(25,237.8359375)"><path id="SvgjsPath1061" d="M 0 4Q 0 0 4 0L 104 0Q 108 0 108 4L 108 64Q 108 68 104 68L 4 68Q 0 68 0 64Z" stroke="rgba(50,50,50,1)" stroke-width="2" fill-opacity="1" fill="#ffffff"></path><g id="SvgjsG1062"><text id="SvgjsText1063" font-family="微软雅黑" text-anchor="start" font-size="13px" width="88px" fill="#323232" font-weight="400" align="middle" lineHeight="125%" anchor="start" family="微软雅黑" size="13px" weight="400" font-style="" opacity="1" y="-1.125" transform="rotate(0)"><tspan id="SvgjsTspan1064" dy="16" x="10"><tspan id="SvgjsTspan1065" style="text-decoration:;">void method(){</tspan></tspan><tspan id="SvgjsTspan1066" dy="16" x="10"><tspan id="SvgjsTspan1067" style="text-decoration:;">A a = new A();</tspan></tspan><tspan id="SvgjsTspan1068" dy="16" x="10"><tspan id="SvgjsTspan1069" style="text-decoration:;"> // 业务逻辑</tspan></tspan><tspan id="SvgjsTspan1070" dy="16" x="10"><tspan id="SvgjsTspan1071" style="text-decoration:;font-size: inherit;">}</tspan></tspan></text></g></g><g id="SvgjsG1072" transform="translate(450,60.002601861953735)"><path id="SvgjsPath1073" d="M 0 4Q 0 0 4 0L 104 0Q 108 0 108 4L 108 64Q 108 68 104 68L 4 68Q 0 68 0 64Z" stroke="rgba(50,50,50,1)" stroke-width="2" fill-opacity="1" fill="#ffffff"></path><g id="SvgjsG1074"><text id="SvgjsText1075" font-family="微软雅黑" text-anchor="start" font-size="13px" width="88px" fill="#323232" font-weight="400" align="middle" lineHeight="125%" anchor="start" family="微软雅黑" size="13px" weight="400" font-style="" opacity="1" y="6.875" transform="rotate(0)"><tspan id="SvgjsTspan1076" dy="16" x="10"><tspan id="SvgjsTspan1077" style="text-decoration:;">Class B {</tspan></tspan><tspan id="SvgjsTspan1078" dy="16" x="10"><tspan id="SvgjsTspan1079" style="text-decoration:;">    </tspan></tspan><tspan id="SvgjsTspan1080" dy="16" x="10"><tspan id="SvgjsTspan1081" style="text-decoration:;">}</tspan></tspan></text></g></g><g id="SvgjsG1082" transform="translate(288,220.00260186195374)"><path id="SvgjsPath1083" d="M 0 4Q 0 0 4 0L 268 0Q 272 0 272 4L 272 99.66667127609253Q 272 103.66667127609253 268 103.66667127609253L 4 103.66667127609253Q 0 103.66667127609253 0 99.66667127609253Z" stroke="rgba(50,50,50,1)" stroke-width="2" fill-opacity="1" fill="#ffffff"></path><g id="SvgjsG1084"><text id="SvgjsText1085" font-family="微软雅黑" text-anchor="start" font-size="13px" width="252px" fill="#323232" font-weight="400" align="middle" lineHeight="125%" anchor="start" family="微软雅黑" size="13px" weight="400" font-style="" opacity="1" y="8.708335638046265" transform="rotate(0)"><tspan id="SvgjsTspan1086" dy="16" x="10"><tspan id="SvgjsTspan1087" style="text-decoration:;">  "a"=a对应的实例,</tspan></tspan><tspan id="SvgjsTspan1088" dy="16" x="10"><tspan id="SvgjsTspan1089" style="text-decoration:;">  "b"=b对应的实例,</tspan></tspan><tspan id="SvgjsTspan1090" dy="16" x="10"><tspan id="SvgjsTspan1091" style="text-decoration:;">  ...</tspan></tspan><tspan id="SvgjsTspan1092" dy="16" x="10"><tspan id="SvgjsTspan1093" style="text-decoration:;">  "全限定类名"=类对应的实例</tspan></tspan><tspan id="SvgjsTspan1094" dy="16" x="10"><tspan id="SvgjsTspan1095" style="text-decoration:;">                 wkq2786130</tspan></tspan></text></g></g><g id="SvgjsG1096" transform="translate(434,225.66927313804626)"><path id="SvgjsPath1097" d="M 0 0L 120 0L 120 40L 0 40Z" stroke="none" fill="none"></path><g id="SvgjsG1098"><text id="SvgjsText1099" font-family="微软雅黑" text-anchor="middle" font-size="25px" width="120px" fill="#323232" font-weight="700" align="middle" lineHeight="125%" anchor="middle" family="微软雅黑" size="25px" weight="700" font-style="" opacity="1" y="-1.625" transform="rotate(0)"><tspan id="SvgjsTspan1100" dy="31" x="60"><tspan id="SvgjsTspan1101" style="text-decoration:;">IOC容器</tspan></tspan></text></g></g><g id="SvgjsG1102" transform="translate(278,25.002601861953735)"><path id="SvgjsPath1103" d="M 0 0L 120 0L 120 40L 0 40Z" stroke="none" fill="none"></path><g id="SvgjsG1104"><text id="SvgjsText1105" font-family="微软雅黑" text-anchor="middle" font-size="13px" width="120px" fill="#323232" font-weight="400" align="middle" lineHeight="125%" anchor="middle" family="微软雅黑" size="13px" weight="400" font-style="" opacity="1" y="9.375" transform="rotate(0)"><tspan id="SvgjsTspan1106" dy="16" x="60"><tspan id="SvgjsTspan1107" style="text-decoration:;">类A</tspan></tspan></text></g></g><g id="SvgjsG1108" transform="translate(445,25.002601861953735)"><path id="SvgjsPath1109" d="M 0 0L 120 0L 120 40L 0 40Z" stroke="none" fill="none"></path><g id="SvgjsG1110"><text id="SvgjsText1111" font-family="微软雅黑" text-anchor="middle" font-size="13px" width="120px" fill="#323232" font-weight="400" align="middle" lineHeight="125%" anchor="middle" family="微软雅黑" size="13px" weight="400" font-style="" opacity="1" y="9.375" transform="rotate(0)"><tspan id="SvgjsTspan1112" dy="16" x="60"><tspan id="SvgjsTspan1113" style="text-decoration:;">类B</tspan></tspan></text></g></g><g id="SvgjsG1114"><path id="SvgjsPath1115" d="M134 271.8359375L210.5 271.8359375L210.5 271.8359375L285.70000000000005 271.8359375" stroke="#323232" stroke-width="1" fill="none" marker-end="url(#SvgjsMarker1116)"></path><rect id="SvgjsRect1118" width="78" height="16" x="170.85000000000002" y="263.8359375" fill="#ffffff"></rect><text id="SvgjsText1119" font-family="微软雅黑" text-anchor="middle" font-size="13px" width="78px" fill="#323232" font-weight="400" align="top" lineHeight="16px" anchor="middle" family="微软雅黑" size="13px" weight="400" font-style="" opacity="1" y="261.2109375" transform="rotate(0)"><tspan id="SvgjsTspan1120" dy="16" x="209.85000000000002"><tspan id="SvgjsTspan1121" style="text-decoration:;">通过容器获取</tspan></tspan></text></g><g id="SvgjsG1122"><path id="SvgjsPath1123" d="M347.66275957880487 133.75143411333073L422.4756529687487 218.28028768378664" stroke="#323232" stroke-width="1" fill="none" marker-end="url(#SvgjsMarker1124)"></path></g><g id="SvgjsG1126"><path id="SvgjsPath1127" d="M503.34382128507525 128.75720738411724L425.509211044327 218.2670091609777" stroke="#323232" stroke-width="1" fill="none" marker-end="url(#SvgjsMarker1128)"></path></g></svg>