<svg id="SvgjsSvg1006" width="2177.5" height="2137.6640625" xmlns="http://www.w3.org/2000/svg" version="1.1" xmlns:xlink="http://www.w3.org/1999/xlink" xmlns:svgjs="http://svgjs.com/svgjs"><rect fill="url(#pattern_mark)" transform="translate(-42.9140625,-90.6640625)" width="5000" height="5000" id="rect_mark" pointer-events="none"></rect><defs id="SvgjsDefs1007"><marker id="SvgjsMarker1287" markerWidth="14" markerHeight="10" refX="10" refY="5" viewBox="0 0 14 10" orient="auto" markerUnits="userSpaceOnUse" stroke-dasharray="0,0"><path id="SvgjsPath1288" d="M0,0 L14,5 L0,10 L0,0" fill="#323232" stroke="#323232" stroke-width="1"></path></marker><marker id="SvgjsMarker1291" markerWidth="14" markerHeight="10" refX="10" refY="5" viewBox="0 0 14 10" orient="auto" markerUnits="userSpaceOnUse" stroke-dasharray="0,0"><path id="SvgjsPath1292" d="M0,0 L14,5 L0,10 L0,0" fill="#323232" stroke="#323232" stroke-width="1"></path></marker><marker id="SvgjsMarker1295" markerWidth="14" markerHeight="10" refX="10" refY="5" viewBox="0 0 14 10" orient="auto" markerUnits="userSpaceOnUse" stroke-dasharray="0,0"><path id="SvgjsPath1296" d="M0,0 L14,5 L0,10 L0,0" fill="#323232" stroke="#323232" stroke-width="1"></path></marker><marker id="SvgjsMarker1299" markerWidth="14" markerHeight="10" refX="10" refY="5" viewBox="0 0 14 10" orient="auto" markerUnits="userSpaceOnUse" stroke-dasharray="0,0"><path id="SvgjsPath1300" d="M0,0 L14,5 L0,10 L0,0" fill="#323232" stroke="#323232" stroke-width="1"></path></marker><marker id="SvgjsMarker1313" markerWidth="14" markerHeight="10" refX="10" refY="5" viewBox="0 0 14 10" orient="auto" markerUnits="userSpaceOnUse" stroke-dasharray="0,0"><path id="SvgjsPath1314" d="M0,0 L14,5 L0,10 L0,0" fill="#323232" stroke="#323232" stroke-width="1"></path></marker><pattern patternUnits="userSpaceOnUse" id="pattern_mark" width="300" height="300"><text x="-50" y="150" fill="rgba(229,229,229,0.8)" font-size="18" transform="rotate(-45, 150, 150)">wkq2786130</text></pattern></defs><g id="SvgjsG1008" transform="translate(1875.5000025431316,25.007376352946267)"><path id="SvgjsPath1009" d="M 0 4Q 0 0 4 0L 272.66666666666674 0Q 276.66666666666674 0 276.66666666666674 4L 276.66666666666674 433Q 276.66666666666674 437 272.66666666666674 437L 4 437Q 0 437 0 433Z" stroke-dasharray="10,6" stroke="rgba(50,50,50,1)" stroke-width="1" fill-opacity="1" fill="#ffffff"></path><g id="SvgjsG1010"><text id="SvgjsText1011" font-family="微软雅黑" text-anchor="middle" font-size="13px" width="257px" fill="#323232" font-weight="400" align="middle" lineHeight="125%" anchor="middle" family="微软雅黑" size="13px" weight="400" font-style="" opacity="1" y="207.875" transform="rotate(0)"></text></g></g><g id="SvgjsG1012" transform="translate(1364.378904978434,230.00737635294593)"><path id="SvgjsPath1013" d="M 0 4Q 0 0 4 0L 259.75780487060547 0Q 263.75780487060547 0 263.75780487060547 4L 263.75780487060547 293Q 263.75780487060547 297 259.75780487060547 297L 4 297Q 0 297 0 293Z" stroke-dasharray="10,6" stroke="rgba(50,50,50,1)" stroke-width="1" fill-opacity="1" fill="#ffffff"></path><g id="SvgjsG1014"><text id="SvgjsText1015" font-family="微软雅黑" text-anchor="middle" font-size="13px" width="244px" fill="#323232" font-weight="400" align="middle" lineHeight="125%" anchor="middle" family="微软雅黑" size="13px" weight="400" font-style="" opacity="1" y="137.875" transform="rotate(0)"></text></g></g><g id="SvgjsG1016" transform="translate(831.7526041666665,144.56076176961255)"><path id="SvgjsPath1017" d="M 0 4Q 0 0 4 0L 306 0Q 310 0 310 4L 310 1303.125Q 310 1307.125 306 1307.125L 4 1307.125Q 0 1307.125 0 1303.125Z" stroke-dasharray="10,6" stroke="rgba(50,50,50,1)" stroke-width="2" fill-opacity="1" fill="#ffffff"></path><g id="SvgjsG1018"><text id="SvgjsText1019" font-family="微软雅黑" text-anchor="middle" font-size="13px" width="290px" fill="#323232" font-weight="400" align="middle" lineHeight="125%" anchor="middle" family="微软雅黑" size="13px" weight="400" font-style="" opacity="1" y="642.9375" transform="rotate(0)"></text></g></g><g id="SvgjsG1020" transform="translate(25.00520579020167,1683.6523473614304)"><path id="SvgjsPath1021" d="M 0 4Q 0 0 4 0L 129 0Q 133 0 133 4L 133 69.5Q 133 73.5 129 73.5L 4 73.5Q 0 73.5 0 69.5Z" stroke="rgba(50,50,50,1)" stroke-width="2" fill-opacity="1" fill="#ffffff"></path><g id="SvgjsG1022"><text id="SvgjsText1023" font-family="微软雅黑" text-anchor="middle" font-size="13px" width="113px" fill="#323232" font-weight="400" align="middle" lineHeight="125%" anchor="middle" family="微软雅黑" size="13px" weight="400" font-style="" opacity="1" y="9.625" transform="rotate(0)"><tspan id="SvgjsTspan1024" dy="16" x="66.5"><tspan id="SvgjsTspan1025" style="text-decoration:;">Spring </tspan><tspan id="SvgjsTspan1026" style="text-decoration:;font-size: inherit;">IOC容器</tspan></tspan><tspan id="SvgjsTspan1027" dy="16" x="66.5"><tspan id="SvgjsTspan1028" style="text-decoration:;font-size: inherit;">启动过程</tspan></tspan><tspan id="SvgjsTspan1029" dy="16" x="66.5"><tspan id="SvgjsTspan1030" style="text-decoration:;font-size: inherit;">refresh()</tspan></tspan></text></g></g><g id="SvgjsG1031" transform="translate(892.7526041666665,191.67404301961255)"><path id="SvgjsPath1032" d="M 0 4Q 0 0 4 0L 196 0Q 200 0 200 4L 200 76Q 200 80 196 80L 4 80Q 0 80 0 76Z" stroke="rgba(50,50,50,1)" stroke-width="2" fill-opacity="1" fill="#ffffff"></path><g id="SvgjsG1033"><text id="SvgjsText1034" font-family="微软雅黑" text-anchor="start" font-size="13px" width="180px" fill="#323232" font-weight="400" align="middle" lineHeight="125%" anchor="start" family="微软雅黑" size="13px" weight="400" font-style="" opacity="1" y="12.875" transform="rotate(0)"><tspan id="SvgjsTspan1035" dy="16" x="10"><tspan id="SvgjsTspan1036" style="text-decoration:;">1、创建容器前</tspan><tspan id="SvgjsTspan1037" style="text-decoration:;font-size: inherit;">准备工作</tspan></tspan><tspan id="SvgjsTspan1038" dy="16" x="10"><tspan id="SvgjsTspan1039" style="text-decoration:;"> </tspan></tspan><tspan id="SvgjsTspan1040" dy="16" x="10"><tspan id="SvgjsTspan1041" style="text-decoration:;">    prepareRefresh()</tspan></tspan></text></g></g><g id="SvgjsG1042" transform="translate(886.7526041666665,338.67404301961255)"><path id="SvgjsPath1043" d="M 0 4Q 0 0 4 0L 196 0Q 200 0 200 4L 200 76Q 200 80 196 80L 4 80Q 0 80 0 76Z" stroke="rgba(50,50,50,1)" stroke-width="2" fill-opacity="1" fill="#ffcdd2"></path><g id="SvgjsG1044"><text id="SvgjsText1045" font-family="微软雅黑" text-anchor="start" font-size="13px" width="180px" fill="#323232" font-weight="400" align="middle" lineHeight="125%" anchor="start" family="微软雅黑" size="13px" weight="400" font-style="" opacity="1" y="12.875" transform="rotate(0)"><tspan id="SvgjsTspan1046" dy="16" x="10"><tspan id="SvgjsTspan1047" style="text-decoration:;">2、创建容器</tspan><tspan id="SvgjsTspan1048" style="text-decoration:;font-size: inherit;">并加载注册bean</tspan></tspan><tspan id="SvgjsTspan1049" dy="16" x="10"><tspan id="SvgjsTspan1050" style="text-decoration:;"> </tspan></tspan><tspan id="SvgjsTspan1051" dy="16" x="10"><tspan id="SvgjsTspan1052" style="text-decoration:;">obtainFreshBeanFactory()</tspan></tspan></text></g></g><g id="SvgjsG1053" transform="translate(1929.3385391235363,60.00737635294638)"><path id="SvgjsPath1054" d="M 0 4Q 0 0 4 0L 147.4947967529297 0Q 151.4947967529297 0 151.4947967529297 4L 151.4947967529297 69Q 151.4947967529297 73 147.4947967529297 73L 4 73Q 0 73 0 69Z" stroke="rgba(50,50,50,1)" stroke-width="2" fill-opacity="1" fill="#ffffff"></path><g id="SvgjsG1055"><text id="SvgjsText1056" font-family="微软雅黑" text-anchor="middle" font-size="13px" width="132px" fill="#323232" font-weight="400" align="middle" lineHeight="125%" anchor="middle" family="微软雅黑" size="13px" weight="400" font-style="" opacity="1" y="9.375" transform="rotate(0)"><tspan id="SvgjsTspan1057" dy="16" x="76"><tspan id="SvgjsTspan1058" style="text-decoration:;">销毁旧的Bean及容器 </tspan></tspan><tspan id="SvgjsTspan1059" dy="16" x="76"><tspan id="SvgjsTspan1060" style="text-decoration:;">destroyBeans()</tspan></tspan><tspan id="SvgjsTspan1061" dy="16" x="76"><tspan id="SvgjsTspan1062" style="text-decoration:;">closeBeanFactory()</tspan></tspan></text></g></g><g id="SvgjsG1063" transform="translate(1931.8385391235363,208.17404301961244)"><path id="SvgjsPath1064" d="M 0 4Q 0 0 4 0L 142.4947967529297 0Q 146.4947967529297 0 146.4947967529297 4L 146.4947967529297 69.5Q 146.4947967529297 73.5 142.4947967529297 73.5L 4 73.5Q 0 73.5 0 69.5Z" stroke="rgba(50,50,50,1)" stroke-width="2" fill-opacity="1" fill="#ffffff"></path><g id="SvgjsG1065"><text id="SvgjsText1066" font-family="微软雅黑" text-anchor="middle" font-size="13px" width="127px" fill="#323232" font-weight="400" align="middle" lineHeight="125%" anchor="middle" family="微软雅黑" size="13px" weight="400" font-style="" opacity="1" y="17.625" transform="rotate(0)"><tspan id="SvgjsTspan1067" dy="16" x="73.5"><tspan id="SvgjsTspan1068" style="text-decoration:;">创建新容器 </tspan></tspan><tspan id="SvgjsTspan1069" dy="16" x="73.5"><tspan id="SvgjsTspan1070" style="text-decoration:;">createBeanFactory()</tspan></tspan></text></g></g><g id="SvgjsG1071" transform="translate(1406.2578074137368,297.8407096862794)"><path id="SvgjsPath1072" d="M 0 4Q 0 0 4 0L 176 0Q 180 0 180 4L 180 65.5Q 180 69.5 176 69.5L 4 69.5Q 0 69.5 0 65.5Z" stroke="rgba(50,50,50,1)" stroke-width="2" fill-opacity="1" fill="#ffcdd2"></path><g id="SvgjsG1073"><text id="SvgjsText1074" font-family="微软雅黑" text-anchor="middle" font-size="13px" width="160px" fill="#323232" font-weight="400" align="middle" lineHeight="125%" anchor="middle" family="微软雅黑" size="13px" weight="400" font-style="" opacity="1" y="7.625" transform="rotate(0)"><tspan id="SvgjsTspan1075" dy="16" x="90"><tspan id="SvgjsTspan1076" style="text-decoration:;">刷新Bean容器 </tspan></tspan><tspan id="SvgjsTspan1077" dy="16" x="90"><tspan id="SvgjsTspan1078" style="text-decoration:;"> </tspan></tspan><tspan id="SvgjsTspan1079" dy="16" x="90"><tspan id="SvgjsTspan1080" style="text-decoration:;">refreshBeanFactory()</tspan></tspan></text></g></g><g id="SvgjsG1081" transform="translate(1926.0885391235365,352.59070968627964)"><path id="SvgjsPath1082" d="M 0 4Q 0 0 4 0L 153.9947967529297 0Q 157.9947967529297 0 157.9947967529297 4L 157.9947967529297 72.5Q 157.9947967529297 76.5 153.9947967529297 76.5L 4 76.5Q 0 76.5 0 72.5Z" stroke="rgba(50,50,50,1)" stroke-width="2" fill-opacity="1" fill="#ffcdd2"></path><g id="SvgjsG1083"><text id="SvgjsText1084" font-family="微软雅黑" text-anchor="middle" font-size="13px" width="138px" fill="#323232" font-weight="400" align="middle" lineHeight="125%" anchor="middle" family="微软雅黑" size="13px" weight="400" font-style="" opacity="1" y="19.125" transform="rotate(0)"><tspan id="SvgjsTspan1085" dy="16" x="79"><tspan id="SvgjsTspan1086" style="text-decoration:;">解析并加载bean定义 </tspan></tspan><tspan id="SvgjsTspan1087" dy="16" x="79"><tspan id="SvgjsTspan1088" style="text-decoration:;">loadBeanDefinitions()</tspan></tspan></text></g></g><g id="SvgjsG1089" transform="translate(886.7526041666665,470.17404301961255)"><path id="SvgjsPath1090" d="M 0 4Q 0 0 4 0L 196 0Q 200 0 200 4L 200 76Q 200 80 196 80L 4 80Q 0 80 0 76Z" stroke="rgba(50,50,50,1)" stroke-width="2" fill-opacity="1" fill="#ffcdd2"></path><g id="SvgjsG1091"><text id="SvgjsText1092" font-family="微软雅黑" text-anchor="start" font-size="13px" width="180px" fill="#323232" font-weight="400" align="middle" lineHeight="125%" anchor="start" family="微软雅黑" size="13px" weight="400" font-style="" opacity="1" y="-3.125" transform="rotate(0)"><tspan id="SvgjsTspan1093" dy="16" x="10"><tspan id="SvgjsTspan1094" style="text-decoration:;">3、准备 Bean工厂以在上下文</tspan></tspan><tspan id="SvgjsTspan1095" dy="16" x="10"><tspan id="SvgjsTspan1096" style="text-decoration:;">中使用。</tspan></tspan><tspan id="SvgjsTspan1097" dy="16" x="10"><tspan id="SvgjsTspan1098" style="text-decoration:;"> </tspan></tspan><tspan id="SvgjsTspan1099" dy="16" x="10"><tspan id="SvgjsTspan1100" style="text-decoration:;">prepareBeanFactory()</tspan></tspan><tspan id="SvgjsTspan1101" dy="16" x="10"><tspan id="SvgjsTspan1102" style="text-decoration:;"> </tspan></tspan></text></g></g><g id="SvgjsG1103" transform="translate(886.7526041666665,589.1740430196126)"><path id="SvgjsPath1104" d="M 0 4Q 0 0 4 0L 196 0Q 200 0 200 4L 200 76Q 200 80 196 80L 4 80Q 0 80 0 76Z" stroke="rgba(50,50,50,1)" stroke-width="2" fill-opacity="1" fill="#ffffff"></path><g id="SvgjsG1105"><text id="SvgjsText1106" font-family="微软雅黑" text-anchor="start" font-size="13px" width="180px" fill="#323232" font-weight="400" align="middle" lineHeight="125%" anchor="start" family="微软雅黑" size="13px" weight="400" font-style="" opacity="1" y="4.875" transform="rotate(0)"><tspan id="SvgjsTspan1107" dy="16" x="10"><tspan id="SvgjsTspan1108" style="text-decoration:;">4、允许在上下文子类中对 </tspan></tspan><tspan id="SvgjsTspan1109" dy="16" x="10"><tspan id="SvgjsTspan1110" style="text-decoration:;">bean 工厂进行后处理。</tspan></tspan><tspan id="SvgjsTspan1111" dy="16" x="10"><tspan id="SvgjsTspan1112" style="text-decoration:;"> </tspan></tspan><tspan id="SvgjsTspan1113" dy="16" x="10"><tspan id="SvgjsTspan1114" style="text-decoration:;">postProcessBeanFactory()</tspan></tspan></text></g></g><g id="SvgjsG1115" transform="translate(886.7526041666665,707.5325520833333)"><path id="SvgjsPath1116" d="M 0 4Q 0 0 4 0L 196 0Q 200 0 200 4L 200 76Q 200 80 196 80L 4 80Q 0 80 0 76Z" stroke="rgba(50,50,50,1)" stroke-width="2" fill-opacity="1" fill="#ffffff"></path><g id="SvgjsG1117"><text id="SvgjsText1118" font-family="微软雅黑" text-anchor="start" font-size="13px" width="180px" fill="#323232" font-weight="400" align="middle" lineHeight="125%" anchor="start" family="微软雅黑" size="13px" weight="400" font-style="" opacity="1" y="-3.125" transform="rotate(0)"><tspan id="SvgjsTspan1119" dy="16" x="10"><tspan id="SvgjsTspan1120" style="text-decoration:;">5、调用在上下文中已经注册的 </tspan></tspan><tspan id="SvgjsTspan1121" dy="16" x="10"><tspan id="SvgjsTspan1122" style="text-decoration:;">BeanFactoryPostProcessor。</tspan></tspan><tspan id="SvgjsTspan1123" dy="16" x="10"><tspan id="SvgjsTspan1124" style="text-decoration:;"> </tspan></tspan><tspan id="SvgjsTspan1125" dy="16" x="10"><tspan id="SvgjsTspan1126" style="text-decoration:;">invokeBeanFactoryPostProce</tspan></tspan><tspan id="SvgjsTspan1127" dy="16" x="10"><tspan id="SvgjsTspan1128" style="text-decoration:;">ssors()</tspan></tspan></text></g></g><g id="SvgjsG1129" transform="translate(886.7526041666665,835.2243898709614)"><path id="SvgjsPath1130" d="M 0 4Q 0 0 4 0L 196 0Q 200 0 200 4L 200 76Q 200 80 196 80L 4 80Q 0 80 0 76Z" stroke="rgba(50,50,50,1)" stroke-width="2" fill-opacity="1" fill="#ffffff"></path><g id="SvgjsG1131"><text id="SvgjsText1132" font-family="微软雅黑" text-anchor="start" font-size="13px" width="180px" fill="#323232" font-weight="400" align="middle" lineHeight="125%" anchor="start" family="微软雅黑" size="13px" weight="400" font-style="" opacity="1" y="12.875" transform="rotate(0)"><tspan id="SvgjsTspan1133" dy="16" x="10"><tspan id="SvgjsTspan1134" style="text-decoration:;">6、注册 BeanPostProcessor</tspan></tspan><tspan id="SvgjsTspan1135" dy="16" x="10"><tspan id="SvgjsTspan1136" style="text-decoration:;"> </tspan></tspan><tspan id="SvgjsTspan1137" dy="16" x="10"><tspan id="SvgjsTspan1138" style="text-decoration:;">registerBeanPostProcessors()</tspan></tspan></text></g></g><g id="SvgjsG1139" transform="translate(886.7526041666665,962.9162276585896)"><path id="SvgjsPath1140" d="M 0 4Q 0 0 4 0L 196 0Q 200 0 200 4L 200 76Q 200 80 196 80L 4 80Q 0 80 0 76Z" stroke="rgba(50,50,50,1)" stroke-width="2" fill-opacity="1" fill="#ffffff"></path><g id="SvgjsG1141"><text id="SvgjsText1142" font-family="微软雅黑" text-anchor="start" font-size="13px" width="180px" fill="#323232" font-weight="400" align="middle" lineHeight="125%" anchor="start" family="微软雅黑" size="13px" weight="400" font-style="" opacity="1" y="12.875" transform="rotate(0)"><tspan id="SvgjsTspan1143" dy="16" x="10"><tspan id="SvgjsTspan1144" style="text-decoration:;">7、初始化消息源</tspan></tspan><tspan id="SvgjsTspan1145" dy="16" x="10"><tspan id="SvgjsTspan1146" style="text-decoration:;"> </tspan></tspan><tspan id="SvgjsTspan1147" dy="16" x="10"><tspan id="SvgjsTspan1148" style="text-decoration:;">initMessageSource()</tspan></tspan></text></g></g><g id="SvgjsG1149" transform="translate(886.7526041666665,1090.6080654462178)"><path id="SvgjsPath1150" d="M 0 4Q 0 0 4 0L 196 0Q 200 0 200 4L 200 76Q 200 80 196 80L 4 80Q 0 80 0 76Z" stroke="rgba(50,50,50,1)" stroke-width="2" fill-opacity="1" fill="#ffffff"></path><g id="SvgjsG1151"><text id="SvgjsText1152" font-family="微软雅黑" text-anchor="start" font-size="13px" width="180px" fill="#323232" font-weight="400" align="middle" lineHeight="125%" anchor="start" family="微软雅黑" size="13px" weight="400" font-style="" opacity="1" y="4.875" transform="rotate(0)"><tspan id="SvgjsTspan1153" dy="16" x="10"><tspan id="SvgjsTspan1154" style="text-decoration:;">8、初始化事件多播器</tspan></tspan><tspan id="SvgjsTspan1155" dy="16" x="10"><tspan id="SvgjsTspan1156" style="text-decoration:;"> </tspan></tspan><tspan id="SvgjsTspan1157" dy="16" x="10"><tspan id="SvgjsTspan1158" style="text-decoration:;">initApplicationEventMulticast</tspan></tspan><tspan id="SvgjsTspan1159" dy="16" x="10"><tspan id="SvgjsTspan1160" style="text-decoration:;">er()</tspan></tspan></text></g></g><g id="SvgjsG1161" transform="translate(886.7526041666665,1229.391061147054)"><path id="SvgjsPath1162" d="M 0 4Q 0 0 4 0L 196 0Q 200 0 200 4L 200 76Q 200 80 196 80L 4 80Q 0 80 0 76Z" stroke="rgba(50,50,50,1)" stroke-width="2" fill-opacity="1" fill="#ffffff"></path><g id="SvgjsG1163"><text id="SvgjsText1164" font-family="微软雅黑" text-anchor="start" font-size="13px" width="180px" fill="#323232" font-weight="400" align="middle" lineHeight="125%" anchor="start" family="微软雅黑" size="13px" weight="400" font-style="" opacity="1" y="4.875" transform="rotate(0)"><tspan id="SvgjsTspan1165" dy="16" x="10"><tspan id="SvgjsTspan1166" style="text-decoration:;">9、初始化特定上下文子类中的</tspan></tspan><tspan id="SvgjsTspan1167" dy="16" x="10"><tspan id="SvgjsTspan1168" style="text-decoration:;">其他特殊 bean。</tspan></tspan><tspan id="SvgjsTspan1169" dy="16" x="10"><tspan id="SvgjsTspan1170" style="text-decoration:;"> </tspan></tspan><tspan id="SvgjsTspan1171" dy="16" x="10"><tspan id="SvgjsTspan1172" style="text-decoration:;">onRefresh()</tspan></tspan></text></g></g><g id="SvgjsG1173" transform="translate(886.7526041666665,1350.9917410214741)"><path id="SvgjsPath1174" d="M 0 4Q 0 0 4 0L 196 0Q 200 0 200 4L 200 76Q 200 80 196 80L 4 80Q 0 80 0 76Z" stroke="rgba(50,50,50,1)" stroke-width="2" fill-opacity="1" fill="#ffffff"></path><g id="SvgjsG1175"><text id="SvgjsText1176" font-family="微软雅黑" text-anchor="start" font-size="13px" width="180px" fill="#323232" font-weight="400" align="middle" lineHeight="125%" anchor="start" family="微软雅黑" size="13px" weight="400" font-style="" opacity="1" y="12.875" transform="rotate(0)"><tspan id="SvgjsTspan1177" dy="16" x="10"><tspan id="SvgjsTspan1178" style="text-decoration:;">10、检查并注册监听器</tspan></tspan><tspan id="SvgjsTspan1179" dy="16" x="10"><tspan id="SvgjsTspan1180" style="text-decoration:;"> </tspan></tspan><tspan id="SvgjsTspan1181" dy="16" x="10"><tspan id="SvgjsTspan1182" style="text-decoration:;">registerListeners()</tspan></tspan></text></g></g><g id="SvgjsG1183" transform="translate(886.7526041666665,1670.5924208958943)"><path id="SvgjsPath1184" d="M 0 4Q 0 0 4 0L 196 0Q 200 0 200 4L 200 76Q 200 80 196 80L 4 80Q 0 80 0 76Z" stroke="rgba(50,50,50,1)" stroke-width="2" fill-opacity="1" fill="#ffcdd2"></path><g id="SvgjsG1185"><text id="SvgjsText1186" font-family="微软雅黑" text-anchor="start" font-size="12px" width="180px" fill="#323232" font-weight="400" align="middle" lineHeight="125%" anchor="start" family="微软雅黑" size="12px" weight="400" font-style="" opacity="1" y="7.5" transform="rotate(0)"><tspan id="SvgjsTspan1187" dy="15" x="10"><tspan id="SvgjsTspan1188" style="text-decoration:;">11、初始化剩余的 singleton </tspan></tspan><tspan id="SvgjsTspan1189" dy="15" x="10"><tspan id="SvgjsTspan1190" style="text-decoration:;">beans</tspan></tspan><tspan id="SvgjsTspan1191" dy="15" x="10"><tspan id="SvgjsTspan1192" style="text-decoration:;"> </tspan></tspan><tspan id="SvgjsTspan1193" dy="15" x="10"><tspan id="SvgjsTspan1194" style="text-decoration:;">finishBeanFactoryInitialization()</tspan></tspan></text></g></g><g id="SvgjsG1195" transform="translate(879.7526041666665,2032.6644986470537)"><path id="SvgjsPath1196" d="M 0 4Q 0 0 4 0L 196 0Q 200 0 200 4L 200 76Q 200 80 196 80L 4 80Q 0 80 0 76Z" stroke="rgba(50,50,50,1)" stroke-width="2" fill-opacity="1" fill="#ffffff"></path><g id="SvgjsG1197"><text id="SvgjsText1198" font-family="微软雅黑" text-anchor="start" font-size="13px" width="180px" fill="#323232" font-weight="400" align="middle" lineHeight="125%" anchor="start" family="微软雅黑" size="13px" weight="400" font-style="" opacity="1" y="4.875" transform="rotate(0)"><tspan id="SvgjsTspan1199" dy="16" x="10"><tspan id="SvgjsTspan1200" style="text-decoration:;">12、广播事件</tspan></tspan><tspan id="SvgjsTspan1201" dy="16" x="10"><tspan id="SvgjsTspan1202" style="text-decoration:;">ApplicationContext初始化完成</tspan></tspan><tspan id="SvgjsTspan1203" dy="16" x="10"><tspan id="SvgjsTspan1204" style="text-decoration:;"> </tspan></tspan><tspan id="SvgjsTspan1205" dy="16" x="10"><tspan id="SvgjsTspan1206" style="text-decoration:;">finishRefresh()</tspan></tspan></text></g></g><g id="SvgjsG1207" transform="translate(507.57456703907326,1309.391061147054)"><path id="SvgjsPath1208" d="M 0 4Q 0 0 4 0L 129 0Q 133 0 133 4L 133 69.5Q 133 73.5 129 73.5L 4 73.5Q 0 73.5 0 69.5Z" stroke="rgba(50,50,50,1)" stroke-width="2" fill-opacity="1" fill="#ffffff"></path><g id="SvgjsG1209"><text id="SvgjsText1210" font-family="微软雅黑" text-anchor="middle" font-size="13px" width="113px" fill="#323232" font-weight="400" align="middle" lineHeight="125%" anchor="middle" family="微软雅黑" size="13px" weight="400" font-style="" opacity="1" y="26.125" transform="rotate(0)"><tspan id="SvgjsTspan1211" dy="16" x="66.5"><tspan id="SvgjsTspan1212" style="text-decoration:;">启动前</tspan></tspan></text></g></g><g id="SvgjsG1213" transform="translate(507.57456703907326,1673.8424208958943)"><path id="SvgjsPath1214" d="M 0 4Q 0 0 4 0L 129 0Q 133 0 133 4L 133 69.5Q 133 73.5 129 73.5L 4 73.5Q 0 73.5 0 69.5Z" stroke="rgba(50,50,50,1)" stroke-width="2" fill-opacity="1" fill="#ffffff"></path><g id="SvgjsG1215"><text id="SvgjsText1216" font-family="微软雅黑" text-anchor="middle" font-size="13px" width="113px" fill="#323232" font-weight="400" align="middle" lineHeight="125%" anchor="middle" family="微软雅黑" size="13px" weight="400" font-style="" opacity="1" y="26.125" transform="rotate(0)"><tspan id="SvgjsTspan1217" dy="16" x="66.5"><tspan id="SvgjsTspan1218" style="text-decoration:;">启动中</tspan></tspan></text></g></g><g id="SvgjsG1219" transform="translate(507.57456703907326,2035.9144986470537)"><path id="SvgjsPath1220" d="M 0 4Q 0 0 4 0L 129 0Q 133 0 133 4L 133 69.5Q 133 73.5 129 73.5L 4 73.5Q 0 73.5 0 69.5Z" stroke="rgba(50,50,50,1)" stroke-width="2" fill-opacity="1" fill="#ffffff"></path><g id="SvgjsG1221"><text id="SvgjsText1222" font-family="微软雅黑" text-anchor="middle" font-size="13px" width="113px" fill="#323232" font-weight="400" align="middle" lineHeight="125%" anchor="middle" family="微软雅黑" size="13px" weight="400" font-style="" opacity="1" y="26.125" transform="rotate(0)"><tspan id="SvgjsTspan1223" dy="16" x="66.5"><tspan id="SvgjsTspan1224" style="text-decoration:;">启动后</tspan></tspan></text></g></g><g id="SvgjsG1225" transform="translate(663.16358560287,1330.6857617696126)"><path id="SvgjsPath1226" d="M 0 13.200000000000001L 130 13.200000000000001L 130 0L 150 20L 130 40L 130 26.8L 0 26.8L 0 13.200000000000001Z" stroke="rgba(50,50,50,1)" stroke-width="1" fill-opacity="1" fill="#ffffff"></path><g id="SvgjsG1227"><text id="SvgjsText1228" font-family="微软雅黑" text-anchor="middle" font-size="13px" width="150px" fill="#323232" font-weight="400" align="middle" lineHeight="125%" anchor="middle" family="微软雅黑" size="13px" weight="400" font-style="" opacity="1" y="9.375000000000002" transform="rotate(0)"></text></g></g><g id="SvgjsG1229" transform="matrix(0.7660444431189778,-0.6427876096865396,0.6427876096865396,0.7660444431189778,193.85691593491651,1597.0891519094116)"><path id="SvgjsPath1230" d="M 0 19.8L 270 19.8L 270 0L 300 30L 270 60L 270 40.2L 0 40.2L 0 19.8Z" stroke="rgba(50,50,50,1)" stroke-width="1" fill-opacity="1" fill="#ffffff"></path><g id="SvgjsG1231"><text id="SvgjsText1232" font-family="微软雅黑" text-anchor="middle" font-size="13px" width="300px" fill="#323232" font-weight="400" align="middle" lineHeight="125%" anchor="middle" family="微软雅黑" size="13px" weight="400" font-style="" opacity="1" y="19.375" transform="rotate(0)"></text></g></g><g id="SvgjsG1233" transform="matrix(1,0,0,1,220.04721069335938,1681.65234375)"><path id="SvgjsPath1234" d="M 0 19.8L 230 19.8L 230 0L 260 30L 230 60L 230 40.2L 0 40.2L 0 19.8Z" stroke="rgba(50,50,50,1)" stroke-width="1" fill-opacity="1" fill="#ffffff"></path><g id="SvgjsG1235"><text id="SvgjsText1236" font-family="微软雅黑" text-anchor="middle" font-size="13px" width="260px" fill="#323232" font-weight="400" align="middle" lineHeight="125%" anchor="middle" family="微软雅黑" size="13px" weight="400" font-style="" opacity="1" y="19.375" transform="rotate(0)"></text></g></g><g id="SvgjsG1237" transform="matrix(0.6427876096865394,0.766044443118978,-0.766044443118978,0.6427876096865394,251.4545645212525,1764.7561163743696)"><path id="SvgjsPath1238" d="M 0 19.8L 270 19.8L 270 0L 300 30L 270 60L 270 40.2L 0 40.2L 0 19.8Z" stroke="rgba(50,50,50,1)" stroke-width="1" fill-opacity="1" fill="#ffffff"></path><g id="SvgjsG1239"><text id="SvgjsText1240" font-family="微软雅黑" text-anchor="middle" font-size="13px" width="300px" fill="#323232" font-weight="400" align="middle" lineHeight="125%" anchor="middle" family="微软雅黑" size="13px" weight="400" font-style="" opacity="1" y="19.375" transform="rotate(0)"></text></g></g><g id="SvgjsG1241" transform="translate(1293.0052057902017,1595.5924208958943)"><path id="SvgjsPath1242" d="M 0 4Q 0 0 4 0L 196 0Q 200 0 200 4L 200 76Q 200 80 196 80L 4 80Q 0 80 0 76Z" stroke="rgba(50,50,50,1)" stroke-width="2" fill-opacity="1" fill="#ffffff"></path><g id="SvgjsG1243"><text id="SvgjsText1244" font-family="微软雅黑" text-anchor="start" font-size="12px" width="180px" fill="#323232" font-weight="400" align="middle" lineHeight="125%" anchor="start" family="微软雅黑" size="12px" weight="400" font-style="" opacity="1" y="7.5" transform="rotate(0)"><tspan id="SvgjsTspan1245" dy="15" x="10"><tspan id="SvgjsTspan1246" style="text-decoration:;">初始化 LoadTimeWeaverAware </tspan></tspan><tspan id="SvgjsTspan1247" dy="15" x="10"><tspan id="SvgjsTspan1248" style="text-decoration:;">bean</tspan></tspan><tspan id="SvgjsTspan1249" dy="15" x="10"><tspan id="SvgjsTspan1250" style="text-decoration:;"> </tspan></tspan><tspan id="SvgjsTspan1251" dy="15" x="10"><tspan id="SvgjsTspan1252" style="text-decoration:;"> getBean(weaverAwareName)</tspan></tspan></text></g></g><g id="SvgjsG1253" transform="translate(1293.0052057902017,1722.5924208958943)"><path id="SvgjsPath1254" d="M 0 4Q 0 0 4 0L 196 0Q 200 0 200 4L 200 76Q 200 80 196 80L 4 80Q 0 80 0 76Z" stroke="rgba(50,50,50,1)" stroke-width="2" fill-opacity="1" fill="#ffffff"></path><g id="SvgjsG1255"><text id="SvgjsText1256" font-family="微软雅黑" text-anchor="start" font-size="12px" width="180px" fill="#323232" font-weight="400" align="middle" lineHeight="125%" anchor="start" family="微软雅黑" size="12px" weight="400" font-style="" opacity="1" y="15" transform="rotate(0)"><tspan id="SvgjsTspan1257" dy="15" x="10"><tspan id="SvgjsTspan1258" style="text-decoration:;">冻结所有BeanDefinition的元数据</tspan></tspan><tspan id="SvgjsTspan1259" dy="15" x="10"><tspan id="SvgjsTspan1260" style="text-decoration:;"> </tspan></tspan><tspan id="SvgjsTspan1261" dy="15" x="10"><tspan id="SvgjsTspan1262" style="text-decoration:;">freezeConfiguration()</tspan></tspan></text></g></g><g id="SvgjsG1263" transform="translate(1293.0052057902017,1849.5924208958943)"><path id="SvgjsPath1264" d="M 0 4Q 0 0 4 0L 196 0Q 200 0 200 4L 200 76Q 200 80 196 80L 4 80Q 0 80 0 76Z" stroke="rgba(50,50,50,1)" stroke-width="2" fill-opacity="1" fill="#ffcdd2"></path><g id="SvgjsG1265"><text id="SvgjsText1266" font-family="微软雅黑" text-anchor="start" font-size="12px" width="180px" fill="#323232" font-weight="400" align="middle" lineHeight="125%" anchor="start" family="微软雅黑" size="12px" weight="400" font-style="" opacity="1" y="7.5" transform="rotate(0)"><tspan id="SvgjsTspan1267" dy="15" x="10"><tspan id="SvgjsTspan1268" style="text-decoration:;">预实例化所有剩余的(非懒加载的)</tspan></tspan><tspan id="SvgjsTspan1269" dy="15" x="10"><tspan id="SvgjsTspan1270" style="text-decoration:;">单例bean。</tspan></tspan><tspan id="SvgjsTspan1271" dy="15" x="10"><tspan id="SvgjsTspan1272" style="text-decoration:;"> </tspan></tspan><tspan id="SvgjsTspan1273" dy="15" x="10"><tspan id="SvgjsTspan1274" style="text-decoration:;">preInstantiateSingletons()</tspan></tspan></text></g></g><g id="SvgjsG1275" transform="translate(1293.0052057902017,1487.5924208958943)"><path id="SvgjsPath1276" d="M 0 4Q 0 0 4 0L 196 0Q 200 0 200 4L 200 76Q 200 80 196 80L 4 80Q 0 80 0 76Z" stroke="rgba(50,50,50,1)" stroke-width="2" fill-opacity="1" fill="#ffffff"></path><g id="SvgjsG1277"><text id="SvgjsText1278" font-family="微软雅黑" text-anchor="start" font-size="12px" width="180px" fill="#323232" font-weight="400" align="middle" lineHeight="125%" anchor="start" family="微软雅黑" size="12px" weight="400" font-style="" opacity="1" y="15" transform="rotate(0)"><tspan id="SvgjsTspan1279" dy="15" x="10"><tspan id="SvgjsTspan1280" style="text-decoration:;">初始化 转换服务</tspan></tspan><tspan id="SvgjsTspan1281" dy="15" x="10"><tspan id="SvgjsTspan1282" style="text-decoration:;"> </tspan></tspan><tspan id="SvgjsTspan1283" dy="15" x="10"><tspan id="SvgjsTspan1284" style="text-decoration:;">setConversionService()</tspan></tspan></text></g></g><g id="SvgjsG1285"><path id="SvgjsPath1286" d="M1087.7499044561837 1710.5189897544828C 1197.046129399276 1710.5924208958943 1182.7116805575922 1527.5924208958943 1289.41492474794 1527.8567730049751" stroke="#323232" stroke-width="2" fill="none" marker-end="url(#SvgjsMarker1287)"></path></g><g id="SvgjsG1289"><path id="SvgjsPath1290" d="M1087.7515197409714 1710.5458625946878C 1174.5388314932595 1710.5924208958943 1205.2189784636087 1635.5924208958943 1289.4091097227042 1635.7600307802372" stroke="#323232" stroke-width="2" fill="none" marker-end="url(#SvgjsMarker1291)"></path></g><g id="SvgjsG1293"><path id="SvgjsPath1294" d="M1087.7520180219174 1710.6266545917595C 1171.8352798899668 1710.5924208958943 1207.9225300669013 1762.5924208958943 1289.4073159112986 1762.4691795907797" stroke="#323232" stroke-width="2" fill="none" marker-end="url(#SvgjsMarker1295)"></path></g><g id="SvgjsG1297"><path id="SvgjsPath1298" d="M1087.7499232091889 1710.6655968989426C 1195.9907921241581 1710.5924208958943 1183.76701783271 1889.5924208958943 1289.414857237121 1889.3289872849207" stroke="#323232" stroke-width="2" fill="none" marker-end="url(#SvgjsMarker1299)"></path></g><g id="SvgjsG1301" transform="translate(1600.0052057902017,1849.5924208958943)"><path id="SvgjsPath1302" d="M 0 4Q 0 0 4 0L 196 0Q 200 0 200 4L 200 76Q 200 80 196 80L 4 80Q 0 80 0 76Z" stroke="rgba(50,50,50,1)" stroke-width="2" fill-opacity="1" fill="#ffcdd2"></path><g id="SvgjsG1303"><text id="SvgjsText1304" font-family="微软雅黑" text-anchor="start" font-size="12px" width="180px" fill="#323232" font-weight="400" align="middle" lineHeight="125%" anchor="start" family="微软雅黑" size="12px" weight="400" font-style="" opacity="1" y="15" transform="rotate(0)"><tspan id="SvgjsTspan1305" dy="15" x="10"><tspan id="SvgjsTspan1306" style="text-decoration:;">获取bean。</tspan></tspan><tspan id="SvgjsTspan1307" dy="15" x="10"><tspan id="SvgjsTspan1308" style="text-decoration:;"> </tspan></tspan><tspan id="SvgjsTspan1309" dy="15" x="10"><tspan id="SvgjsTspan1310" style="text-decoration:;">getBean()</tspan></tspan></text></g></g><g id="SvgjsG1311"><path id="SvgjsPath1312" d="M1494.0052057902017 1889.5924208958943C 1535.8052057902016 1889.5924208958943 1557.2052057902017 1889.5924208958943 1596.4052057902018 1889.5924208958943" stroke="#323232" stroke-width="2" fill="none" marker-end="url(#SvgjsMarker1313)"></path></g><g id="SvgjsG1315" transform="translate(675.16358560287,1690.5924208958943)"><path id="SvgjsPath1316" d="M 0 13.200000000000001L 130 13.200000000000001L 130 0L 150 20L 130 40L 130 26.8L 0 26.8L 0 13.200000000000001Z" stroke="rgba(50,50,50,1)" stroke-width="1" fill-opacity="1" fill="#ffffff"></path><g id="SvgjsG1317"><text id="SvgjsText1318" font-family="微软雅黑" text-anchor="middle" font-size="13px" width="150px" fill="#323232" font-weight="400" align="middle" lineHeight="125%" anchor="middle" family="微软雅黑" size="13px" weight="400" font-style="" opacity="1" y="9.375000000000002" transform="rotate(0)"></text></g></g><g id="SvgjsG1319" transform="translate(681.7526041666665,2052.6644986470537)"><path id="SvgjsPath1320" d="M 0 13.200000000000001L 130 13.200000000000001L 130 0L 150 20L 130 40L 130 26.8L 0 26.8L 0 13.200000000000001Z" stroke="rgba(50,50,50,1)" stroke-width="1" fill-opacity="1" fill="#ffffff"></path><g id="SvgjsG1321"><text id="SvgjsText1322" font-family="微软雅黑" text-anchor="middle" font-size="13px" width="150px" fill="#323232" font-weight="400" align="middle" lineHeight="125%" anchor="middle" family="微软雅黑" size="13px" weight="400" font-style="" opacity="1" y="9.375000000000002" transform="rotate(0)"></text></g></g><g id="SvgjsG1323" transform="translate(1406.2578074137368,418.67404301961255)"><path id="SvgjsPath1324" d="M 0 4Q 0 0 4 0L 176 0Q 180 0 180 4L 180 65.5Q 180 69.5 176 69.5L 4 69.5Q 0 69.5 0 65.5Z" stroke="rgba(50,50,50,1)" stroke-width="2" fill-opacity="1" fill="#ffffff"></path><g id="SvgjsG1325"><text id="SvgjsText1326" font-family="微软雅黑" text-anchor="middle" font-size="13px" width="160px" fill="#323232" font-weight="400" align="middle" lineHeight="125%" anchor="middle" family="微软雅黑" size="13px" weight="400" font-style="" opacity="1" y="7.625" transform="rotate(0)"><tspan id="SvgjsTspan1327" dy="16" x="90"><tspan id="SvgjsTspan1328" style="text-decoration:;">获取Bean容器 </tspan></tspan><tspan id="SvgjsTspan1329" dy="16" x="90"><tspan id="SvgjsTspan1330" style="text-decoration:;"> </tspan></tspan><tspan id="SvgjsTspan1331" dy="16" x="90"><tspan id="SvgjsTspan1332" style="text-decoration:;">getBeanFactory()</tspan></tspan></text></g></g><g id="SvgjsG1333" transform="translate(1125.5657545725503,358.5073763529458)"><path id="SvgjsPath1334" d="M 0 13.200000000000001L 180 13.200000000000001L 180 0L 200 20L 180 40L 180 26.8L 0 26.8L 0 13.200000000000001Z" stroke="rgba(50,50,50,1)" stroke-width="1" fill-opacity="1" fill="#ffffff"></path><g id="SvgjsG1335"><text id="SvgjsText1336" font-family="微软雅黑" text-anchor="middle" font-size="13px" width="200px" fill="#323232" font-weight="400" align="middle" lineHeight="125%" anchor="middle" family="微软雅黑" size="13px" weight="400" font-style="" opacity="1" y="9.375000000000002" transform="rotate(0)"></text></g></g><g id="SvgjsG1337" transform="translate(1614.2122383117674,312.59070968627964)"><path id="SvgjsPath1338" d="M 0 13.200000000000001L 180 13.200000000000001L 180 0L 200 20L 180 40L 180 26.8L 0 26.8L 0 13.200000000000001Z" stroke="rgba(50,50,50,1)" stroke-width="1" fill-opacity="1" fill="#ffffff"></path><g id="SvgjsG1339"><text id="SvgjsText1340" font-family="微软雅黑" text-anchor="middle" font-size="13px" width="200px" fill="#323232" font-weight="400" align="middle" lineHeight="125%" anchor="middle" family="微软雅黑" size="13px" weight="400" font-style="" opacity="1" y="9.375000000000002" transform="rotate(0)"></text></g></g></svg>