<svg id="SvgjsSvg1001" width="1130.5" height="349" xmlns="http://www.w3.org/2000/svg" version="1.1" xmlns:xlink="http://www.w3.org/1999/xlink" xmlns:svgjs="http://svgjs.com/svgjs"><rect fill="url(#pattern_mark)" transform="translate(3.5,2.5)" width="3000" height="3000" id="rect_mark" pointer-events="none"></rect><defs id="SvgjsDefs1002"><marker id="SvgjsMarker1111" markerWidth="11" markerHeight="7" refX="8.5" refY="3.5" viewBox="0 0 11 7" orient="auto" markerUnits="userSpaceOnUse" stroke-dasharray="0,0"><path id="SvgjsPath1112" d="M0,0 L11,3.5 L0,7 L0,0" fill="#323232" stroke="#323232" stroke-width="1"></path></marker><marker id="SvgjsMarker1115" markerWidth="11" markerHeight="7" refX="8.5" refY="3.5" viewBox="0 0 11 7" orient="auto" markerUnits="userSpaceOnUse" stroke-dasharray="0,0"><path id="SvgjsPath1116" d="M0,0 L11,3.5 L0,7 L0,0" fill="#323232" stroke="#323232" stroke-width="1"></path></marker><marker id="SvgjsMarker1151" markerWidth="11" markerHeight="7" refX="8.5" refY="3.5" viewBox="0 0 11 7" orient="auto" markerUnits="userSpaceOnUse" stroke-dasharray="0,0"><path id="SvgjsPath1152" d="M0,0 L11,3.5 L0,7 L0,0" fill="#323232" stroke="#323232" stroke-width="1"></path></marker><marker id="SvgjsMarker1161" markerWidth="11" markerHeight="7" refX="8.5" refY="3.5" viewBox="0 0 11 7" orient="auto" markerUnits="userSpaceOnUse" stroke-dasharray="0,0"><path id="SvgjsPath1162" d="M0,0 L11,3.5 L0,7 L0,0" fill="#323232" stroke="#323232" stroke-width="1"></path></marker><marker id="SvgjsMarker1171" markerWidth="11" markerHeight="7" refX="8.5" refY="3.5" viewBox="0 0 11 7" orient="auto" markerUnits="userSpaceOnUse" stroke-dasharray="0,0"><path id="SvgjsPath1172" d="M0,0 L11,3.5 L0,7 L0,0" fill="#323232" stroke="#323232" stroke-width="1"></path></marker><pattern patternUnits="userSpaceOnUse" id="pattern_mark" width="300" height="300"><text x="-50" y="150" fill="rgba(229,229,229,0.8)" font-size="18" transform="rotate(-45, 150, 150)">wkq2786130</text></pattern></defs><g id="SvgjsG1008" transform="translate(290.25,65)"><path id="SvgjsPath1009" d="M 0 4Q 0 0 4 0L 90.25 0Q 94.25 0 94.25 4L 94.25 195Q 94.25 199 90.25 199L 4 199Q 0 199 0 195Z" stroke="rgba(33,41,48,1)" stroke-width="0.5" fill-opacity="1" fill="#dde9fa"></path><g id="SvgjsG1010"><text id="SvgjsText1011" font-family="微软雅黑" text-anchor="middle" font-size="13px" width="75px" fill="#323232" font-weight="400" align="middle" lineHeight="125%" anchor="middle" family="微软雅黑" size="13px" weight="400" font-style="" opacity="1" y="88.875" transform="rotate(0)"></text></g></g><g id="SvgjsG1012" transform="translate(25,94)"><path id="SvgjsPath1013" d="M 0 4Q 0 0 4 0L 146 0Q 150 0 150 4L 150 226Q 150 230 146 230L 4 230Q 0 230 0 226Z" stroke="rgba(33,41,48,1)" stroke-width="0.5" fill-opacity="1" fill="#dde9fa"></path><g id="SvgjsG1014"><text id="SvgjsText1015" font-family="微软雅黑" text-anchor="middle" font-size="13px" width="130px" fill="#323232" font-weight="400" align="middle" lineHeight="125%" anchor="middle" family="微软雅黑" size="13px" weight="400" font-style="" opacity="1" y="104.375" transform="rotate(0)"></text></g></g><g id="SvgjsG1016" transform="translate(40.25,145)"><path id="SvgjsPath1017" d="M0 0L120 0L120 40 L0 40Z" stroke="rgba(102, 102, 102,1)" stroke-width="1" fill-opacity="1" fill="#b8d8a1"></path><path id="SvgjsPath1018" d="M0 40L120 40L120 80 L0 80Z" stroke="rgba(102, 102, 102,1)" stroke-width="1" fill-opacity="1" fill="#b8d8a1"></path><path id="SvgjsPath1019" d="M0 80L120 80L120 120 L0 120Z" stroke="rgba(102, 102, 102,1)" stroke-width="1" fill-opacity="1" fill="#b8d8a1"></path><path id="SvgjsPath1020" d="M0 120L120 120L120 160 L0 160Z" stroke="rgba(102, 102, 102,1)" stroke-width="1" fill-opacity="1" fill="#b8d8a1"></path><g id="SvgjsG1021"><text id="SvgjsText1022" font-family="微软雅黑" text-anchor="middle" font-size="12px" width="120px" fill="#323232" font-weight="400" align="middle" lineHeight="125%" anchor="middle" family="微软雅黑" size="12px" weight="400" font-style="" opacity="1" y="2.5" transform="rotate(0)"><tspan id="SvgjsTspan1023" dy="15" x="60"><tspan id="SvgjsTspan1024" style="text-decoration:;">哈希节点数组指针</tspan></tspan><tspan id="SvgjsTspan1025" dy="15" x="60"><tspan id="SvgjsTspan1026" style="text-decoration:;">**table</tspan></tspan></text></g><g id="SvgjsG1027"><text id="SvgjsText1028" font-family="微软雅黑" text-anchor="middle" font-size="12px" width="120px" fill="#323232" font-weight="400" align="middle" lineHeight="125%" anchor="middle" family="微软雅黑" size="12px" weight="400" font-style="" opacity="1" y="42.5" transform="rotate(0)"><tspan id="SvgjsTspan1029" dy="15" x="60"><tspan id="SvgjsTspan1030" style="text-decoration:;">哈希表大小size</tspan></tspan></text></g><g id="SvgjsG1031"><text id="SvgjsText1032" font-family="微软雅黑" text-anchor="middle" font-size="12px" width="120px" fill="#323232" font-weight="400" align="middle" lineHeight="125%" anchor="middle" family="微软雅黑" size="12px" weight="400" font-style="" opacity="1" y="82.5" transform="rotate(0)"><tspan id="SvgjsTspan1033" dy="15" x="60"><tspan id="SvgjsTspan1034" style="text-decoration:;">掩码/计算数组下标</tspan></tspan><tspan id="SvgjsTspan1035" dy="15" x="60"><tspan id="SvgjsTspan1036" style="text-decoration:;">sizemask</tspan></tspan></text></g><g id="SvgjsG1037"><text id="SvgjsText1038" font-family="微软雅黑" text-anchor="middle" font-size="12px" width="120px" fill="#323232" font-weight="400" align="middle" lineHeight="125%" anchor="middle" family="微软雅黑" size="12px" weight="400" font-style="" opacity="1" y="122.5" transform="rotate(0)"><tspan id="SvgjsTspan1039" dy="15" x="60"><tspan id="SvgjsTspan1040" style="text-decoration:;">已使用个数</tspan></tspan><tspan id="SvgjsTspan1041" dy="15" x="60"><tspan id="SvgjsTspan1042" style="text-decoration:;">used</tspan></tspan></text></g></g><g id="SvgjsG1043" transform="translate(50.25,97)"><path id="SvgjsPath1044" d="M 0 0L 100 0L 100 38L 0 38Z" stroke="none" fill="none"></path><g id="SvgjsG1045"><text id="SvgjsText1046" font-family="微软雅黑" text-anchor="middle" font-size="16px" width="100px" fill="#323232" font-weight="400" align="middle" lineHeight="125%" anchor="middle" family="微软雅黑" size="16px" weight="400" font-style="" opacity="1" y="5" transform="rotate(0)"><tspan id="SvgjsTspan1047" dy="20" x="50"><tspan id="SvgjsTspan1048" style="text-decoration:;font-weight: bold;">哈希表 </tspan><tspan id="SvgjsTspan1049" style="text-decoration:;">dictht</tspan></tspan></text></g></g><g id="SvgjsG1050" transform="translate(514.25,25)"><path id="SvgjsPath1051" d="M 0 4Q 0 0 4 0L 146 0Q 150 0 150 4L 150 186Q 150 190 146 190L 4 190Q 0 190 0 186Z" stroke="rgba(33,41,48,1)" stroke-width="0.5" fill-opacity="1" fill="#dde9fa"></path><g id="SvgjsG1052"><text id="SvgjsText1053" font-family="微软雅黑" text-anchor="middle" font-size="13px" width="130px" fill="#323232" font-weight="400" align="middle" lineHeight="125%" anchor="middle" family="微软雅黑" size="13px" weight="400" font-style="" opacity="1" y="84.375" transform="rotate(0)"></text></g></g><g id="SvgjsG1054" transform="translate(529.5,76)"><path id="SvgjsPath1055" d="M0 0L120 0L120 39.995999999999995 L0 39.995999999999995Z" stroke="rgba(102, 102, 102,1)" stroke-width="1" fill-opacity="1" fill="#b8d8a1"></path><path id="SvgjsPath1056" d="M0 39.995999999999995L120 39.995999999999995L120 79.99199999999999 L0 79.99199999999999Z" stroke="rgba(102, 102, 102,1)" stroke-width="1" fill-opacity="1" fill="#b8d8a1"></path><path id="SvgjsPath1057" d="M0 80.00399999999999L120 80.00399999999999L120 120 L0 120Z" stroke="rgba(102, 102, 102,1)" stroke-width="1" fill-opacity="1" fill="#b8d8a1"></path><g id="SvgjsG1058"><text id="SvgjsText1059" font-family="微软雅黑" text-anchor="middle" font-size="12px" width="120px" fill="#323232" font-weight="400" align="middle" lineHeight="125%" anchor="middle" family="微软雅黑" size="12px" weight="400" font-style="" opacity="1" y="2.4979999999999976" transform="rotate(0)"><tspan id="SvgjsTspan1060" dy="15" x="60"><tspan id="SvgjsTspan1061" style="text-decoration:;">key的指针</tspan></tspan><tspan id="SvgjsTspan1062" dy="15" x="60"><tspan id="SvgjsTspan1063" style="text-decoration:;">*key</tspan></tspan></text></g><g id="SvgjsG1064"><text id="SvgjsText1065" font-family="微软雅黑" text-anchor="middle" font-size="12px" width="120px" fill="#323232" font-weight="400" align="middle" lineHeight="125%" anchor="middle" family="微软雅黑" size="12px" weight="400" font-style="" opacity="1" y="42.49399999999999" transform="rotate(0)"><tspan id="SvgjsTspan1066" dy="15" x="60"><tspan id="SvgjsTspan1067" style="text-decoration:;">value，联合结构体v</tspan></tspan></text></g><g id="SvgjsG1068"><text id="SvgjsText1069" font-family="微软雅黑" text-anchor="middle" font-size="12px" width="120px" fill="#323232" font-weight="400" align="middle" lineHeight="125%" anchor="middle" family="微软雅黑" size="12px" weight="400" font-style="" opacity="1" y="82.502" transform="rotate(0)"><tspan id="SvgjsTspan1070" dy="15" x="60"><tspan id="SvgjsTspan1071" style="text-decoration:;">链表的下一个节点</tspan></tspan><tspan id="SvgjsTspan1072" dy="15" x="60"><tspan id="SvgjsTspan1073" style="text-decoration:;">*next</tspan></tspan></text></g></g><g id="SvgjsG1074" transform="translate(539.5,28)"><path id="SvgjsPath1075" d="M 0 0L 100 0L 100 38L 0 38Z" stroke="none" fill="none"></path><g id="SvgjsG1076"><text id="SvgjsText1077" font-family="微软雅黑" text-anchor="middle" font-size="16px" width="100px" fill="#323232" font-weight="400" align="middle" lineHeight="125%" anchor="middle" family="微软雅黑" size="16px" weight="400" font-style="" opacity="1" y="-5" transform="rotate(0)"><tspan id="SvgjsTspan1078" dy="20" x="50"><tspan id="SvgjsTspan1079" style="text-decoration:;font-weight: bold;">哈希表节点 </tspan></tspan><tspan id="SvgjsTspan1080" dy="20" x="50"><tspan id="SvgjsTspan1081" style="text-decoration:;">dictEntry</tspan></tspan></text></g></g><g id="SvgjsG1082" transform="translate(309.25,99)"><path id="SvgjsPath1083" d="M0 0L55 0L55 37.5 L0 37.5Z" stroke="rgba(102, 102, 102,1)" stroke-width="1" fill-opacity="1" fill="#b8d8a1"></path><path id="SvgjsPath1084" d="M0 37.5L55 37.5L55 75 L0 75Z" stroke="rgba(102, 102, 102,1)" stroke-width="1" fill-opacity="1" fill="#b8d8a1"></path><path id="SvgjsPath1085" d="M0 75L55 75L55 112.5 L0 112.5Z" stroke="rgba(102, 102, 102,1)" stroke-width="1" fill-opacity="1" fill="#b8d8a1"></path><path id="SvgjsPath1086" d="M0 112.5L55 112.5L55 150 L0 150Z" stroke="rgba(102, 102, 102,1)" stroke-width="1" fill-opacity="1" fill="#b8d8a1"></path><g id="SvgjsG1087"><text id="SvgjsText1088" font-family="微软雅黑" text-anchor="middle" font-size="12px" width="55px" fill="#323232" font-weight="400" align="middle" lineHeight="125%" anchor="middle" family="微软雅黑" size="12px" weight="400" font-style="" opacity="1" y="8.75" transform="rotate(0)"><tspan id="SvgjsTspan1089" dy="15" x="27.5"><tspan id="SvgjsTspan1090" style="text-decoration:;">0</tspan></tspan></text></g><g id="SvgjsG1091"><text id="SvgjsText1092" font-family="微软雅黑" text-anchor="middle" font-size="12px" width="55px" fill="#323232" font-weight="400" align="middle" lineHeight="125%" anchor="middle" family="微软雅黑" size="12px" weight="400" font-style="" opacity="1" y="46.25" transform="rotate(0)"><tspan id="SvgjsTspan1093" dy="15" x="27.5"><tspan id="SvgjsTspan1094" style="text-decoration:;">1</tspan></tspan></text></g><g id="SvgjsG1095"><text id="SvgjsText1096" font-family="微软雅黑" text-anchor="middle" font-size="12px" width="55px" fill="#323232" font-weight="400" align="middle" lineHeight="125%" anchor="middle" family="微软雅黑" size="12px" weight="400" font-style="" opacity="1" y="83.75" transform="rotate(0)"><tspan id="SvgjsTspan1097" dy="15" x="27.5"><tspan id="SvgjsTspan1098" style="text-decoration:;">2</tspan></tspan></text></g><g id="SvgjsG1099"><text id="SvgjsText1100" font-family="微软雅黑" text-anchor="middle" font-size="12px" width="55px" fill="#323232" font-weight="400" align="middle" lineHeight="125%" anchor="middle" family="微软雅黑" size="12px" weight="400" font-style="" opacity="1" y="121.25" transform="rotate(0)"><tspan id="SvgjsTspan1101" dy="15" x="27.5"><tspan id="SvgjsTspan1102" style="text-decoration:;">3</tspan></tspan></text></g></g><g id="SvgjsG1103" transform="translate(290.25,60)"><path id="SvgjsPath1104" d="M 0 0L 100 0L 100 40L 0 40Z" stroke="none" fill="none"></path><g id="SvgjsG1105"><text id="SvgjsText1106" font-family="微软雅黑" text-anchor="middle" font-size="13px" width="100px" fill="#323232" font-weight="400" align="middle" lineHeight="125%" anchor="middle" family="微软雅黑" size="13px" weight="400" font-style="" opacity="1" y="9.375" transform="rotate(0)"><tspan id="SvgjsTspan1107" dy="16" x="50"><tspan id="SvgjsTspan1108" style="text-decoration:;">dictEntry[]</tspan></tspan></text></g></g><g id="SvgjsG1109"><path id="SvgjsPath1110" d="M160.74999630181617 164.9980769373007L289.3500066567309 164.50346151285873" stroke="#323232" stroke-width="0.5" fill="none" marker-end="url(#SvgjsMarker1111)"></path></g><g id="SvgjsG1113"><path id="SvgjsPath1114" d="M364.74998888925927 119.00333325926172L513.3500199993333 119.99400013332888" stroke="#323232" stroke-width="0.5" fill="none" marker-end="url(#SvgjsMarker1115)"></path></g><g id="SvgjsG1117" transform="translate(794,82)"><path id="SvgjsPath1118" d="M 0 4Q 0 0 4 0L 146 0Q 150 0 150 4L 150 186Q 150 190 146 190L 4 190Q 0 190 0 186Z" stroke="rgba(33,41,48,1)" stroke-width="0.5" fill-opacity="1" fill="#dde9fa"></path><g id="SvgjsG1119"><text id="SvgjsText1120" font-family="微软雅黑" text-anchor="middle" font-size="13px" width="130px" fill="#323232" font-weight="400" align="middle" lineHeight="125%" anchor="middle" family="微软雅黑" size="13px" weight="400" font-style="" opacity="1" y="84.375" transform="rotate(0)"></text></g></g><g id="SvgjsG1121" transform="translate(809.25,133)"><path id="SvgjsPath1122" d="M0 0L120 0L120 39.995999999999995 L0 39.995999999999995Z" stroke="rgba(102, 102, 102,1)" stroke-width="1" fill-opacity="1" fill="#b8d8a1"></path><path id="SvgjsPath1123" d="M0 39.995999999999995L120 39.995999999999995L120 79.99199999999999 L0 79.99199999999999Z" stroke="rgba(102, 102, 102,1)" stroke-width="1" fill-opacity="1" fill="#b8d8a1"></path><path id="SvgjsPath1124" d="M0 80.00399999999999L120 80.00399999999999L120 120 L0 120Z" stroke="rgba(102, 102, 102,1)" stroke-width="1" fill-opacity="1" fill="#b8d8a1"></path><g id="SvgjsG1125"><text id="SvgjsText1126" font-family="微软雅黑" text-anchor="middle" font-size="12px" width="120px" fill="#323232" font-weight="400" align="middle" lineHeight="125%" anchor="middle" family="微软雅黑" size="12px" weight="400" font-style="" opacity="1" y="2.4979999999999976" transform="rotate(0)"><tspan id="SvgjsTspan1127" dy="15" x="60"><tspan id="SvgjsTspan1128" style="text-decoration:;">key的指针</tspan></tspan><tspan id="SvgjsTspan1129" dy="15" x="60"><tspan id="SvgjsTspan1130" style="text-decoration:;">*key</tspan></tspan></text></g><g id="SvgjsG1131"><text id="SvgjsText1132" font-family="微软雅黑" text-anchor="middle" font-size="12px" width="120px" fill="#323232" font-weight="400" align="middle" lineHeight="125%" anchor="middle" family="微软雅黑" size="12px" weight="400" font-style="" opacity="1" y="42.49399999999999" transform="rotate(0)"><tspan id="SvgjsTspan1133" dy="15" x="60"><tspan id="SvgjsTspan1134" style="text-decoration:;">value，联合结构体v</tspan></tspan></text></g><g id="SvgjsG1135"><text id="SvgjsText1136" font-family="微软雅黑" text-anchor="middle" font-size="12px" width="120px" fill="#323232" font-weight="400" align="middle" lineHeight="125%" anchor="middle" family="微软雅黑" size="12px" weight="400" font-style="" opacity="1" y="82.502" transform="rotate(0)"><tspan id="SvgjsTspan1137" dy="15" x="60"><tspan id="SvgjsTspan1138" style="text-decoration:;">链表的下一个节点</tspan></tspan><tspan id="SvgjsTspan1139" dy="15" x="60"><tspan id="SvgjsTspan1140" style="text-decoration:;">*next</tspan></tspan></text></g></g><g id="SvgjsG1141" transform="translate(819.25,85)"><path id="SvgjsPath1142" d="M 0 0L 100 0L 100 38L 0 38Z" stroke="none" fill="none"></path><g id="SvgjsG1143"><text id="SvgjsText1144" font-family="微软雅黑" text-anchor="middle" font-size="16px" width="100px" fill="#323232" font-weight="400" align="middle" lineHeight="125%" anchor="middle" family="微软雅黑" size="16px" weight="400" font-style="" opacity="1" y="-5" transform="rotate(0)"><tspan id="SvgjsTspan1145" dy="20" x="50"><tspan id="SvgjsTspan1146" style="text-decoration:;font-weight: bold;">哈希表节点 </tspan></tspan><tspan id="SvgjsTspan1147" dy="20" x="50"><tspan id="SvgjsTspan1148" style="text-decoration:;">dictEntry</tspan></tspan></text></g></g><g id="SvgjsG1149"><path id="SvgjsPath1150" d="M649.75 177L793.1 177" stroke="#323232" stroke-width="0.5" fill="none" marker-end="url(#SvgjsMarker1151)"></path></g><g id="SvgjsG1153" transform="translate(529.5,272)"><path id="SvgjsPath1154" d="M 0 4Q 0 0 4 0L 95 0Q 99 0 99 4L 99 43Q 99 47 95 47L 4 47Q 0 47 0 43Z" stroke="rgba(33,41,48,1)" stroke-width="0.5" fill-opacity="1" fill="#dde9fa"></path><g id="SvgjsG1155"><text id="SvgjsText1156" font-family="微软雅黑" text-anchor="middle" font-size="13px" width="79px" fill="#323232" font-weight="400" align="middle" lineHeight="125%" anchor="middle" family="微软雅黑" size="13px" weight="400" font-style="" opacity="1" y="12.875" transform="rotate(0)"><tspan id="SvgjsTspan1157" dy="16" x="49.5"><tspan id="SvgjsTspan1158" style="text-decoration:;">NULL</tspan></tspan></text></g></g><g id="SvgjsG1159"><path id="SvgjsPath1160" d="M363.7490157615606 228.03135713178978C 435.0222091063108 228 457.7277908936892 295.5 528.6017716291909 295.4435571627784" stroke="#323232" stroke-width="0.5" fill="none" marker-end="url(#SvgjsMarker1161)"></path></g><g id="SvgjsG1163" transform="translate(1006.5,207.5)"><path id="SvgjsPath1164" d="M 0 4Q 0 0 4 0L 95 0Q 99 0 99 4L 99 43Q 99 47 95 47L 4 47Q 0 47 0 43Z" stroke="rgba(33,41,48,1)" stroke-width="0.5" fill-opacity="1" fill="#dde9fa"></path><g id="SvgjsG1165"><text id="SvgjsText1166" font-family="微软雅黑" text-anchor="middle" font-size="13px" width="79px" fill="#323232" font-weight="400" align="middle" lineHeight="125%" anchor="middle" family="微软雅黑" size="13px" weight="400" font-style="" opacity="1" y="12.875" transform="rotate(0)"><tspan id="SvgjsTspan1167" dy="16" x="49.5"><tspan id="SvgjsTspan1168" style="text-decoration:;">NULL</tspan></tspan></text></g></g><g id="SvgjsG1169"><path id="SvgjsPath1170" d="M929.5 231.5L967.75 231.5L967.75 231L1005.6 231" stroke="#323232" stroke-width="0.5" fill="none" marker-end="url(#SvgjsMarker1171)"></path></g></svg>