<svg id="SvgjsSvg1001" width="919" height="272" xmlns="http://www.w3.org/2000/svg" version="1.1" xmlns:xlink="http://www.w3.org/1999/xlink" xmlns:svgjs="http://svgjs.com/svgjs"><rect fill="url(#pattern_mark)" transform="translate(8.5,-6)" width="3000" height="3000" id="rect_mark" pointer-events="none"></rect><defs id="SvgjsDefs1002"><marker id="SvgjsMarker1079" markerWidth="11" markerHeight="7" refX="8.5" refY="3.5" viewBox="0 0 11 7" orient="auto" markerUnits="userSpaceOnUse" stroke-dasharray="0,0"><path id="SvgjsPath1080" d="M0,0 L11,3.5 L0,7 L0,0" fill="#323232" stroke="#323232" stroke-width="1"></path></marker><marker id="SvgjsMarker1083" markerWidth="11" markerHeight="7" refX="8.5" refY="3.5" viewBox="0 0 11 7" orient="auto" markerUnits="userSpaceOnUse" stroke-dasharray="0,0"><path id="SvgjsPath1084" d="M0,0 L11,3.5 L0,7 L0,0" fill="#323232" stroke="#323232" stroke-width="1"></path></marker><marker id="SvgjsMarker1087" markerWidth="11" markerHeight="7" refX="8.5" refY="3.5" viewBox="0 0 11 7" orient="auto" markerUnits="userSpaceOnUse" stroke-dasharray="0,0"><path id="SvgjsPath1088" d="M0,0 L11,3.5 L0,7 L0,0" fill="#323232" stroke="#323232" stroke-width="1"></path></marker><marker id="SvgjsMarker1097" markerWidth="11" markerHeight="7" refX="8.5" refY="3.5" viewBox="0 0 11 7" orient="auto" markerUnits="userSpaceOnUse" stroke-dasharray="0,0"><path id="SvgjsPath1098" d="M0,0 L11,3.5 L0,7 L0,0" fill="#323232" stroke="#323232" stroke-width="1"></path></marker><marker id="SvgjsMarker1101" markerWidth="11" markerHeight="7" refX="8.5" refY="3.5" viewBox="0 0 11 7" orient="auto" markerUnits="userSpaceOnUse" stroke-dasharray="0,0"><path id="SvgjsPath1102" d="M0,0 L11,3.5 L0,7 L0,0" fill="#323232" stroke="#323232" stroke-width="1"></path></marker><marker id="SvgjsMarker1105" markerWidth="11" markerHeight="7" refX="8.5" refY="3.5" viewBox="0 0 11 7" orient="auto" markerUnits="userSpaceOnUse" stroke-dasharray="0,0"><path id="SvgjsPath1106" d="M0,0 L11,3.5 L0,7 L0,0" fill="#323232" stroke="#323232" stroke-width="1"></path></marker><marker id="SvgjsMarker1109" markerWidth="11" markerHeight="7" refX="8.5" refY="3.5" viewBox="0 0 11 7" orient="auto" markerUnits="userSpaceOnUse" stroke-dasharray="0,0"><path id="SvgjsPath1110" d="M0,0 L11,3.5 L0,7 L0,0" fill="#323232" stroke="#323232" stroke-width="1"></path></marker><marker id="SvgjsMarker1113" markerWidth="11" markerHeight="7" refX="8.5" refY="3.5" viewBox="0 0 11 7" orient="auto" markerUnits="userSpaceOnUse" stroke-dasharray="0,0"><path id="SvgjsPath1114" d="M0,0 L11,3.5 L0,7 L0,0" fill="#323232" stroke="#323232" stroke-width="1"></path></marker><marker id="SvgjsMarker1117" markerWidth="11" markerHeight="7" refX="8.5" refY="3.5" viewBox="0 0 11 7" orient="auto" markerUnits="userSpaceOnUse" stroke-dasharray="0,0"><path id="SvgjsPath1118" d="M0,0 L11,3.5 L0,7 L0,0" fill="#323232" stroke="#323232" stroke-width="1"></path></marker><marker id="SvgjsMarker1121" markerWidth="11" markerHeight="7" refX="8.5" refY="3.5" viewBox="0 0 11 7" orient="auto" markerUnits="userSpaceOnUse" stroke-dasharray="0,0"><path id="SvgjsPath1122" d="M0,0 L11,3.5 L0,7 L0,0" fill="#323232" stroke="#323232" stroke-width="1"></path></marker><pattern patternUnits="userSpaceOnUse" id="pattern_mark" width="300" height="300"><text x="-50" y="150" fill="rgba(229,229,229,0.8)" font-size="18" transform="rotate(-45, 150, 150)">wkq2786130</text></pattern></defs><g id="SvgjsG1008" transform="translate(25,25)"><path id="SvgjsPath1009" d="M 0 4Q 0 0 4 0L 92 0Q 96 0 96 4L 96 36Q 96 40 92 40L 4 40Q 0 40 0 36Z" stroke="rgba(33,41,48,1)" stroke-width="0.5" fill-opacity="1" fill="#b8d8a1"></path><g id="SvgjsG1010"><text id="SvgjsText1011" font-family="微软雅黑" text-anchor="middle" font-size="13px" width="76px" fill="#323232" font-weight="400" align="middle" lineHeight="125%" anchor="middle" family="微软雅黑" size="13px" weight="400" font-style="" opacity="1" y="9.375" transform="rotate(0)"><tspan id="SvgjsTspan1012" dy="16" x="48"><tspan id="SvgjsTspan1013" style="text-decoration:;">key=0</tspan></tspan></text></g></g><g id="SvgjsG1014" transform="translate(25,89)"><path id="SvgjsPath1015" d="M 0 4Q 0 0 4 0L 92 0Q 96 0 96 4L 96 36Q 96 40 92 40L 4 40Q 0 40 0 36Z" stroke="rgba(33,41,48,1)" stroke-width="0.5" fill-opacity="1" fill="#b8d8a1"></path><g id="SvgjsG1016"><text id="SvgjsText1017" font-family="微软雅黑" text-anchor="middle" font-size="13px" width="76px" fill="#323232" font-weight="400" align="middle" lineHeight="125%" anchor="middle" family="微软雅黑" size="13px" weight="400" font-style="" opacity="1" y="9.375" transform="rotate(0)"><tspan id="SvgjsTspan1018" dy="16" x="48"><tspan id="SvgjsTspan1019" style="text-decoration:;">key=2</tspan></tspan></text></g></g><g id="SvgjsG1020" transform="translate(25,148)"><path id="SvgjsPath1021" d="M 0 4Q 0 0 4 0L 92 0Q 96 0 96 4L 96 36Q 96 40 92 40L 4 40Q 0 40 0 36Z" stroke="rgba(33,41,48,1)" stroke-width="0.5" fill-opacity="1" fill="#b8d8a1"></path><g id="SvgjsG1022"><text id="SvgjsText1023" font-family="微软雅黑" text-anchor="middle" font-size="13px" width="76px" fill="#323232" font-weight="400" align="middle" lineHeight="125%" anchor="middle" family="微软雅黑" size="13px" weight="400" font-style="" opacity="1" y="9.375" transform="rotate(0)"><tspan id="SvgjsTspan1024" dy="16" x="48"><tspan id="SvgjsTspan1025" style="text-decoration:;">key=4</tspan></tspan></text></g></g><g id="SvgjsG1026" transform="translate(25,207)"><path id="SvgjsPath1027" d="M 0 4Q 0 0 4 0L 92 0Q 96 0 96 4L 96 36Q 96 40 92 40L 4 40Q 0 40 0 36Z" stroke="rgba(33,41,48,1)" stroke-width="0.5" fill-opacity="1" fill="#b8d8a1"></path><g id="SvgjsG1028"><text id="SvgjsText1029" font-family="微软雅黑" text-anchor="middle" font-size="13px" width="76px" fill="#323232" font-weight="400" align="middle" lineHeight="125%" anchor="middle" family="微软雅黑" size="13px" weight="400" font-style="" opacity="1" y="9.375" transform="rotate(0)"><tspan id="SvgjsTspan1030" dy="16" x="48"><tspan id="SvgjsTspan1031" style="text-decoration:;">key=8</tspan></tspan></text></g></g><g id="SvgjsG1032" transform="translate(215,118)"><path id="SvgjsPath1033" d="M 0 4Q 0 0 4 0L 92 0Q 96 0 96 4L 96 36Q 96 40 92 40L 4 40Q 0 40 0 36Z" stroke="rgba(33,41,48,1)" stroke-width="0.5" fill-opacity="1" fill="#ffe0b2"></path><g id="SvgjsG1034"><text id="SvgjsText1035" font-family="微软雅黑" text-anchor="middle" font-size="13px" width="76px" fill="#323232" font-weight="400" align="middle" lineHeight="125%" anchor="middle" family="微软雅黑" size="13px" weight="400" font-style="" opacity="1" y="9.375" transform="rotate(0)"><tspan id="SvgjsTspan1036" dy="16" x="48"><tspan id="SvgjsTspan1037" style="text-decoration:;">哈希函数</tspan></tspan></text></g></g><g id="SvgjsG1038" transform="translate(386,58)"><path id="SvgjsPath1039" d="M0 0L80 0L80 40 L0 40Z" stroke="rgba(102, 102, 102,1)" stroke-width="1" fill-opacity="1" fill="#bbdefb"></path><path id="SvgjsPath1040" d="M0 40L80 40L80 80 L0 80Z" stroke="rgba(102, 102, 102,1)" stroke-width="1" fill-opacity="1" fill="#bbdefb"></path><path id="SvgjsPath1041" d="M0 80L80 80L80 120 L0 120Z" stroke="rgba(102, 102, 102,1)" stroke-width="1" fill-opacity="1" fill="#bbdefb"></path><path id="SvgjsPath1042" d="M0 120L80 120L80 160 L0 160Z" stroke="rgba(102, 102, 102,1)" stroke-width="1" fill-opacity="1" fill="#bbdefb"></path><g id="SvgjsG1043"><text id="SvgjsText1044" font-family="微软雅黑" text-anchor="middle" font-size="16px" width="80px" fill="#323232" font-weight="400" align="middle" lineHeight="125%" anchor="middle" family="微软雅黑" size="16px" weight="400" font-style="" opacity="1" y="6" transform="rotate(0)"><tspan id="SvgjsTspan1045" dy="20" x="40"><tspan id="SvgjsTspan1046" style="text-decoration:;">桶0</tspan></tspan></text></g><g id="SvgjsG1047"><text id="SvgjsText1048" font-family="微软雅黑" text-anchor="middle" font-size="16px" width="80px" fill="#323232" font-weight="400" align="middle" lineHeight="125%" anchor="middle" family="微软雅黑" size="16px" weight="400" font-style="" opacity="1" y="46" transform="rotate(0)"><tspan id="SvgjsTspan1049" dy="20" x="40"><tspan id="SvgjsTspan1050" style="text-decoration:;fill: rgb(50, 50, 50);">桶1</tspan></tspan></text></g><g id="SvgjsG1051"><text id="SvgjsText1052" font-family="微软雅黑" text-anchor="middle" font-size="16px" width="80px" fill="#323232" font-weight="400" align="middle" lineHeight="125%" anchor="middle" family="微软雅黑" size="16px" weight="400" font-style="" opacity="1" y="86" transform="rotate(0)"><tspan id="SvgjsTspan1053" dy="20" x="40"><tspan id="SvgjsTspan1054" style="text-decoration:;fill: rgb(50, 50, 50);">桶2</tspan></tspan></text></g><g id="SvgjsG1055"><text id="SvgjsText1056" font-family="微软雅黑" text-anchor="middle" font-size="16px" width="80px" fill="#323232" font-weight="400" align="middle" lineHeight="125%" anchor="middle" family="微软雅黑" size="16px" weight="400" font-style="" opacity="1" y="126" transform="rotate(0)"><tspan id="SvgjsTspan1057" dy="20" x="40"><tspan id="SvgjsTspan1058" style="text-decoration:;fill: rgb(50, 50, 50);">桶3</tspan></tspan></text></g></g><g id="SvgjsG1059" transform="translate(514,59)"><path id="SvgjsPath1060" d="M 0 4Q 0 0 4 0L 92 0Q 96 0 96 4L 96 36Q 96 40 92 40L 4 40Q 0 40 0 36Z" stroke="rgba(33,41,48,1)" stroke-width="0.5" fill-opacity="1" fill="#b8d8a1"></path><g id="SvgjsG1061"><text id="SvgjsText1062" font-family="微软雅黑" text-anchor="middle" font-size="13px" width="76px" fill="#323232" font-weight="400" align="middle" lineHeight="125%" anchor="middle" family="微软雅黑" size="13px" weight="400" font-style="" opacity="1" y="9.375" transform="rotate(0)"><tspan id="SvgjsTspan1063" dy="16" x="48"><tspan id="SvgjsTspan1064" style="text-decoration:;">key=0</tspan></tspan></text></g></g><g id="SvgjsG1065" transform="translate(658,59)"><path id="SvgjsPath1066" d="M 0 4Q 0 0 4 0L 92 0Q 96 0 96 4L 96 36Q 96 40 92 40L 4 40Q 0 40 0 36Z" stroke="rgba(33,41,48,1)" stroke-width="0.5" fill-opacity="1" fill="#b8d8a1"></path><g id="SvgjsG1067"><text id="SvgjsText1068" font-family="微软雅黑" text-anchor="middle" font-size="13px" width="76px" fill="#323232" font-weight="400" align="middle" lineHeight="125%" anchor="middle" family="微软雅黑" size="13px" weight="400" font-style="" opacity="1" y="9.375" transform="rotate(0)"><tspan id="SvgjsTspan1069" dy="16" x="48"><tspan id="SvgjsTspan1070" style="text-decoration:;">key=4</tspan></tspan></text></g></g><g id="SvgjsG1071" transform="translate(798,59)"><path id="SvgjsPath1072" d="M 0 4Q 0 0 4 0L 92 0Q 96 0 96 4L 96 36Q 96 40 92 40L 4 40Q 0 40 0 36Z" stroke="rgba(33,41,48,1)" stroke-width="0.5" fill-opacity="1" fill="#b8d8a1"></path><g id="SvgjsG1073"><text id="SvgjsText1074" font-family="微软雅黑" text-anchor="middle" font-size="13px" width="76px" fill="#323232" font-weight="400" align="middle" lineHeight="125%" anchor="middle" family="微软雅黑" size="13px" weight="400" font-style="" opacity="1" y="9.375" transform="rotate(0)"><tspan id="SvgjsTspan1075" dy="16" x="48"><tspan id="SvgjsTspan1076" style="text-decoration:;">key=8</tspan></tspan></text></g></g><g id="SvgjsG1077"><path id="SvgjsPath1078" d="M610.25 79L634 79L634 79L657.1 79" stroke="#323232" stroke-width="0.5" fill="none" marker-end="url(#SvgjsMarker1079)"></path></g><g id="SvgjsG1081"><path id="SvgjsPath1082" d="M754.25 79L776 79L776 79L797.1 79" stroke="#323232" stroke-width="0.5" fill="none" marker-end="url(#SvgjsMarker1083)"></path></g><g id="SvgjsG1085"><path id="SvgjsPath1086" d="M466.5 78.5L490 78.5L490 78.5L513.1 78.5" stroke="#323232" stroke-width="0.5" fill="none" marker-end="url(#SvgjsMarker1087)"></path></g><g id="SvgjsG1089" transform="translate(514,139)"><path id="SvgjsPath1090" d="M 0 4Q 0 0 4 0L 92 0Q 96 0 96 4L 96 36Q 96 40 92 40L 4 40Q 0 40 0 36Z" stroke="rgba(33,41,48,1)" stroke-width="0.5" fill-opacity="1" fill="#b8d8a1"></path><g id="SvgjsG1091"><text id="SvgjsText1092" font-family="微软雅黑" text-anchor="middle" font-size="13px" width="76px" fill="#323232" font-weight="400" align="middle" lineHeight="125%" anchor="middle" family="微软雅黑" size="13px" weight="400" font-style="" opacity="1" y="9.375" transform="rotate(0)"><tspan id="SvgjsTspan1093" dy="16" x="48"><tspan id="SvgjsTspan1094" style="text-decoration:;">key=2</tspan></tspan></text></g></g><g id="SvgjsG1095"><path id="SvgjsPath1096" d="M466.5 159.5L490 159.5L490 159L513.1 159" stroke="#323232" stroke-width="0.5" fill="none" marker-end="url(#SvgjsMarker1097)"></path></g><g id="SvgjsG1099"><path id="SvgjsPath1100" d="M121.17771948413571 45.17582885132576L214.36020985711144 137.36701613522726" stroke="#323232" stroke-width="0.5" fill="none" marker-end="url(#SvgjsMarker1101)"></path></g><g id="SvgjsG1103"><path id="SvgjsPath1104" d="M121.23888973668465 109.0737000251474L214.13999694793517 137.73467990946935" stroke="#323232" stroke-width="0.5" fill="none" marker-end="url(#SvgjsMarker1105)"></path></g><g id="SvgjsG1107"><path id="SvgjsPath1108" d="M121.23816480280468 167.9239899565517L214.1426067099032 138.2736361564139" stroke="#323232" stroke-width="0.5" fill="none" marker-end="url(#SvgjsMarker1109)"></path></g><g id="SvgjsG1111"><path id="SvgjsPath1112" d="M121.1815389116407 226.82811741344656L214.34645991809342 138.6187773115924" stroke="#323232" stroke-width="0.5" fill="none" marker-end="url(#SvgjsMarker1113)"></path></g><g id="SvgjsG1115"><path id="SvgjsPath1116" d="M311.1963537611655 137.84525763192917L385.59677269863874 79.21181489312576" stroke="#323232" stroke-width="0.5" fill="none" marker-end="url(#SvgjsMarker1117)"></path></g><g id="SvgjsG1119"><path id="SvgjsPath1120" d="M311.2435433186101 138.05645043808843L385.3797007343935 155.2403279847932" stroke="#323232" stroke-width="0.5" fill="none" marker-end="url(#SvgjsMarker1121)"></path></g></svg>