<svg id="SvgjsSvg1001" width="858" height="265.5546875" xmlns="http://www.w3.org/2000/svg" version="1.1" xmlns:xlink="http://www.w3.org/1999/xlink" xmlns:svgjs="http://svgjs.com/svgjs"><rect fill="url(#pattern_mark)" transform="translate(-12.125,-20.71875)" width="3000" height="3000" id="rect_mark" pointer-events="none"></rect><defs id="SvgjsDefs1002"><pattern patternUnits="userSpaceOnUse" id="pattern_mark" width="300" height="300"><text x="-50" y="150" fill="rgba(229,229,229,0.8)" font-size="18" transform="rotate(-45, 150, 150)">wkq2786130</text></pattern></defs><g id="SvgjsG1008" transform="translate(372,88.3125)"><path id="SvgjsPath1009" d="M 0 4Q 0 0 4 0L 176.5 0Q 180.5 0 180.5 4L 180.5 36Q 180.5 40 176.5 40L 4 40Q 0 40 0 36Z" stroke="rgba(33,41,48,1)" stroke-width="0.5" fill-opacity="1" fill="#b8d8a1"></path><g id="SvgjsG1010"><text id="SvgjsText1011" font-family="微软雅黑" text-anchor="middle" font-size="12px" width="161px" fill="#323232" font-weight="400" align="middle" lineHeight="125%" anchor="middle" family="微软雅黑" size="12px" weight="400" font-style="" opacity="1" y="10" transform="rotate(0)"><tspan id="SvgjsTspan1012" dy="15" x="90.5"><tspan id="SvgjsTspan1013" style="text-decoration:;">sdshdr8结构占用内存 3字节</tspan></tspan></text></g></g><g id="SvgjsG1014" transform="translate(25,88.3125)"><path id="SvgjsPath1015" d="M 0 4Q 0 0 4 0L 343 0Q 347 0 347 4L 347 36Q 347 40 343 40L 4 40Q 0 40 0 36Z" stroke="rgba(33,41,48,1)" stroke-width="0.5" fill-opacity="1" fill="#bbdefb"></path><g id="SvgjsG1016"><text id="SvgjsText1017" font-family="微软雅黑" text-anchor="middle" font-size="13px" width="327px" fill="#323232" font-weight="400" align="middle" lineHeight="125%" anchor="middle" family="微软雅黑" size="13px" weight="400" font-style="" opacity="1" y="9.375" transform="rotate(0)"><tspan id="SvgjsTspan1018" dy="16" x="173.5"><tspan id="SvgjsTspan1019" style="text-decoration:;">redisObject结构 占用内存 16字节</tspan></tspan></text></g></g><g id="SvgjsG1020" transform="translate(25,123.8125)"><path id="SvgjsPath1021" d="M 0 4Q 0 0 4 0L 803.75 0Q 807.75 0 807.75 4L 807.75 37Q 807.75 41 803.75 41L 4 41Q 0 41 0 37Z" stroke="rgba(33,41,48,1)" stroke-width="2" fill-opacity="1" fill="#ffffff"></path><g id="SvgjsG1022"><text id="SvgjsText1023" font-family="微软雅黑" text-anchor="middle" font-size="13px" width="788px" fill="#323232" font-weight="400" align="middle" lineHeight="125%" anchor="middle" family="微软雅黑" size="13px" weight="400" font-style="" opacity="1" y="9.875" transform="rotate(0)"></text></g></g><g id="SvgjsG1024" transform="translate(25,124.3125)"><path id="SvgjsPath1025" d="M 0 4Q 0 0 4 0L 60 0Q 64 0 64 4L 64 36Q 64 40 60 40L 4 40Q 0 40 0 36Z" stroke="rgba(33,41,48,1)" stroke-width="0.5" fill-opacity="1" fill="#bbdefb"></path><g id="SvgjsG1026"><text id="SvgjsText1027" font-family="微软雅黑" text-anchor="middle" font-size="12px" width="44px" fill="#323232" font-weight="400" align="middle" lineHeight="125%" anchor="middle" family="微软雅黑" size="12px" weight="400" font-style="" opacity="1" y="2.5" transform="rotate(0)"><tspan id="SvgjsTspan1028" dy="15" x="32"><tspan id="SvgjsTspan1029" style="text-decoration:;font-size: inherit;">type</tspan></tspan><tspan id="SvgjsTspan1030" dy="15" x="32"><tspan id="SvgjsTspan1031" style="text-decoration:;">4 bits</tspan></tspan></text></g></g><g id="SvgjsG1032" transform="translate(89,124.3125)"><path id="SvgjsPath1033" d="M 0 4Q 0 0 4 0L 60 0Q 64 0 64 4L 64 36Q 64 40 60 40L 4 40Q 0 40 0 36Z" stroke="rgba(33,41,48,1)" stroke-width="0.5" fill-opacity="1" fill="#bbdefb"></path><g id="SvgjsG1034"><text id="SvgjsText1035" font-family="微软雅黑" text-anchor="middle" font-size="12px" width="44px" fill="#323232" font-weight="400" align="middle" lineHeight="125%" anchor="middle" family="微软雅黑" size="12px" weight="400" font-style="" opacity="1" y="2.5" transform="rotate(0)"><tspan id="SvgjsTspan1036" dy="15" x="32"><tspan id="SvgjsTspan1037" style="text-decoration:;fill: rgb(50, 50, 50);">encoding</tspan></tspan><tspan id="SvgjsTspan1038" dy="15" x="32"><tspan id="SvgjsTspan1039" style="text-decoration:;fill: rgb(50, 50, 50);">4 bits</tspan></tspan></text></g></g><g id="SvgjsG1040" transform="translate(153,124.3125)"><path id="SvgjsPath1041" d="M 0 4Q 0 0 4 0L 56 0Q 60 0 60 4L 60 36Q 60 40 56 40L 4 40Q 0 40 0 36Z" stroke="rgba(33,41,48,1)" stroke-width="0.5" fill-opacity="1" fill="#bbdefb"></path><g id="SvgjsG1042"><text id="SvgjsText1043" font-family="微软雅黑" text-anchor="middle" font-size="12px" width="40px" fill="#323232" font-weight="400" align="middle" lineHeight="125%" anchor="middle" family="微软雅黑" size="12px" weight="400" font-style="" opacity="1" y="2.5" transform="rotate(0)"><tspan id="SvgjsTspan1044" dy="15" x="30"><tspan id="SvgjsTspan1045" style="text-decoration:;">lru</tspan></tspan><tspan id="SvgjsTspan1046" dy="15" x="30"><tspan id="SvgjsTspan1047" style="text-decoration:;fill: rgb(50, 50, 50);">24 bits</tspan></tspan></text></g></g><g id="SvgjsG1048" transform="translate(213,124.3125)"><path id="SvgjsPath1049" d="M 0 4Q 0 0 4 0L 76 0Q 80 0 80 4L 80 36Q 80 40 76 40L 4 40Q 0 40 0 36Z" stroke="rgba(33,41,48,1)" stroke-width="0.5" fill-opacity="1" fill="#bbdefb"></path><g id="SvgjsG1050"><text id="SvgjsText1051" font-family="微软雅黑" text-anchor="middle" font-size="12px" width="60px" fill="#323232" font-weight="400" align="middle" lineHeight="125%" anchor="middle" family="微软雅黑" size="12px" weight="400" font-style="" opacity="1" y="2.5" transform="rotate(0)"><tspan id="SvgjsTspan1052" dy="15" x="40"><tspan id="SvgjsTspan1053" style="text-decoration:;">refcount</tspan></tspan><tspan id="SvgjsTspan1054" dy="15" x="40"><tspan id="SvgjsTspan1055" style="text-decoration:;fill: rgb(50, 50, 50);">4字节</tspan></tspan></text></g></g><g id="SvgjsG1056" transform="translate(293,124.3125)"><path id="SvgjsPath1057" d="M 0 4Q 0 0 4 0L 76 0Q 80 0 80 4L 80 36Q 80 40 76 40L 4 40Q 0 40 0 36Z" stroke="rgba(33,41,48,1)" stroke-width="0.5" fill-opacity="1" fill="#bbdefb"></path><g id="SvgjsG1058"><text id="SvgjsText1059" font-family="微软雅黑" text-anchor="middle" font-size="12px" width="60px" fill="#323232" font-weight="400" align="middle" lineHeight="125%" anchor="middle" family="微软雅黑" size="12px" weight="400" font-style="" opacity="1" y="2.5" transform="rotate(0)"><tspan id="SvgjsTspan1060" dy="15" x="40"><tspan id="SvgjsTspan1061" style="text-decoration:;">*ptr</tspan></tspan><tspan id="SvgjsTspan1062" dy="15" x="40"><tspan id="SvgjsTspan1063" style="text-decoration:;fill: rgb(50, 50, 50);">8字节</tspan></tspan></text></g></g><g id="SvgjsG1064" transform="translate(372,124.3125)"><path id="SvgjsPath1065" d="M 0 4Q 0 0 4 0L 56 0Q 60 0 60 4L 60 36Q 60 40 56 40L 4 40Q 0 40 0 36Z" stroke="rgba(33,41,48,1)" stroke-width="0.5" fill-opacity="1" fill="#b8d8a1"></path><g id="SvgjsG1066"><text id="SvgjsText1067" font-family="微软雅黑" text-anchor="middle" font-size="12px" width="40px" fill="#323232" font-weight="400" align="middle" lineHeight="125%" anchor="middle" family="微软雅黑" size="12px" weight="400" font-style="" opacity="1" y="2.5" transform="rotate(0)"><tspan id="SvgjsTspan1068" dy="15" x="30"><tspan id="SvgjsTspan1069" style="text-decoration:;">len</tspan></tspan><tspan id="SvgjsTspan1070" dy="15" x="30"><tspan id="SvgjsTspan1071" style="text-decoration:;font-size: inherit;">1字节</tspan></tspan></text></g></g><g id="SvgjsG1072" transform="translate(432,124.3125)"><path id="SvgjsPath1073" d="M 0 4Q 0 0 4 0L 56 0Q 60 0 60 4L 60 36Q 60 40 56 40L 4 40Q 0 40 0 36Z" stroke="rgba(33,41,48,1)" stroke-width="0.5" fill-opacity="1" fill="#b8d8a1"></path><g id="SvgjsG1074"><text id="SvgjsText1075" font-family="微软雅黑" text-anchor="middle" font-size="12px" width="40px" fill="#323232" font-weight="400" align="middle" lineHeight="125%" anchor="middle" family="微软雅黑" size="12px" weight="400" font-style="" opacity="1" y="2.5" transform="rotate(0)"><tspan id="SvgjsTspan1076" dy="15" x="30"><tspan id="SvgjsTspan1077" style="text-decoration:;">alloc</tspan></tspan><tspan id="SvgjsTspan1078" dy="15" x="30"><tspan id="SvgjsTspan1079" style="text-decoration:;fill: rgb(50, 50, 50);">1字节</tspan></tspan></text></g></g><g id="SvgjsG1080" transform="translate(492,124.3125)"><path id="SvgjsPath1081" d="M 0 4Q 0 0 4 0L 56 0Q 60 0 60 4L 60 36Q 60 40 56 40L 4 40Q 0 40 0 36Z" stroke="rgba(33,41,48,1)" stroke-width="0.5" fill-opacity="1" fill="#b8d8a1"></path><g id="SvgjsG1082"><text id="SvgjsText1083" font-family="微软雅黑" text-anchor="middle" font-size="12px" width="40px" fill="#323232" font-weight="400" align="middle" lineHeight="125%" anchor="middle" family="微软雅黑" size="12px" weight="400" font-style="" opacity="1" y="2.5" transform="rotate(0)"><tspan id="SvgjsTspan1084" dy="15" x="30"><tspan id="SvgjsTspan1085" style="text-decoration:;">flags</tspan></tspan><tspan id="SvgjsTspan1086" dy="15" x="30"><tspan id="SvgjsTspan1087" style="text-decoration:;fill: rgb(50, 50, 50);">1字节</tspan></tspan></text></g></g><g id="SvgjsG1088" transform="translate(162,164.3125)"><path id="SvgjsPath1089" d="M 0 0L 480 0L 480 45L 0 45Z" stroke="none" fill="none"></path><g id="SvgjsG1090"><text id="SvgjsText1091" font-family="微软雅黑" text-anchor="middle" font-size="13px" width="480px" fill="#323232" font-weight="400" align="middle" lineHeight="125%" anchor="middle" family="微软雅黑" size="13px" weight="400" font-style="" opacity="1" y="11.875" transform="rotate(0)"><tspan id="SvgjsTspan1092" dy="16" x="240"><tspan id="SvgjsTspan1093" style="text-decoration:;">CPU cache line 64字节 - redisObject16字节 - sdshdr8 3字节 - 结束符1字节 = 44字节</tspan></tspan></text></g></g><g id="SvgjsG1094" transform="translate(256.5,196.5625)"><path id="SvgjsPath1095" d="M 0 0L 277 0L 277 44L 0 44Z" stroke="none" fill="none"></path><g id="SvgjsG1096"><text id="SvgjsText1097" font-family="微软雅黑" text-anchor="middle" font-size="13px" width="277px" fill="#323232" font-weight="400" align="middle" lineHeight="125%" anchor="middle" family="微软雅黑" size="13px" weight="400" font-style="" opacity="1" y="11.375" transform="rotate(0)"><tspan id="SvgjsTspan1098" dy="16" x="138.5"><tspan id="SvgjsTspan1099" style="text-decoration:;">结构仅供参考，未严格按照内存大小比例画画</tspan></tspan></text></g></g><g id="SvgjsG1100" transform="translate(552,124.3125)"><path id="SvgjsPath1101" d="M 0 4Q 0 0 4 0L 212.75 0Q 216.75 0 216.75 4L 216.75 36Q 216.75 40 212.75 40L 4 40Q 0 40 0 36Z" stroke="rgba(33,41,48,1)" stroke-width="0.5" fill-opacity="1" fill="#ffcdd2"></path><g id="SvgjsG1102"><text id="SvgjsText1103" font-family="微软雅黑" text-anchor="middle" font-size="12px" width="197px" fill="#323232" font-weight="400" align="middle" lineHeight="125%" anchor="middle" family="微软雅黑" size="12px" weight="400" font-style="" opacity="1" y="2.5" transform="rotate(0)"><tspan id="SvgjsTspan1104" dy="15" x="108.5"><tspan id="SvgjsTspan1105" style="text-decoration:;fill: rgb(50, 50, 50);">字符串</tspan></tspan><tspan id="SvgjsTspan1106" dy="15" x="108.5"><tspan id="SvgjsTspan1107" style="text-decoration:;">最多44字节</tspan></tspan></text></g></g><g id="SvgjsG1108" transform="translate(768.75,124.3125)"><path id="SvgjsPath1109" d="M 0 4Q 0 0 4 0L 60 0Q 64 0 64 4L 64 36Q 64 40 60 40L 4 40Q 0 40 0 36Z" stroke="rgba(33,41,48,1)" stroke-width="0.5" fill-opacity="1" fill="#ffe0b2"></path><g id="SvgjsG1110"><text id="SvgjsText1111" font-family="微软雅黑" text-anchor="middle" font-size="12px" width="44px" fill="#323232" font-weight="400" align="middle" lineHeight="125%" anchor="middle" family="微软雅黑" size="12px" weight="400" font-style="" opacity="1" y="2.5" transform="rotate(0)"><tspan id="SvgjsTspan1112" dy="15" x="32"><tspan id="SvgjsTspan1113" style="text-decoration:;">结束符</tspan></tspan><tspan id="SvgjsTspan1114" dy="15" x="32"><tspan id="SvgjsTspan1115" style="text-decoration:;">1字节</tspan></tspan></text></g></g><g id="SvgjsG1116" transform="translate(222.0625,25)"><path id="SvgjsPath1117" d="M 0 0L 447.875 0L 447.875 63.625L 0 63.625Z" stroke="none" fill="none"></path><g id="SvgjsG1118"><text id="SvgjsText1119" font-family="微软雅黑" text-anchor="middle" font-size="16px" width="448px" fill="#323232" font-weight="700" align="middle" lineHeight="125%" anchor="middle" family="微软雅黑" size="16px" weight="700" font-style="" opacity="1" y="17.8125" transform="rotate(0)"><tspan id="SvgjsTspan1120" dy="20" x="224"><tspan id="SvgjsTspan1121" style="text-decoration:;">redisObject  encoding-</tspan><tspan id="SvgjsTspan1122" style="text-decoration:;fill: rgb(50, 50, 50);">emb-</tspan><tspan id="SvgjsTspan1123" style="text-decoration:;">str 内存空间逻辑分布图</tspan></tspan></text></g></g></svg>