<svg id="SvgjsSvg1001" width="1180" height="291.5625" xmlns="http://www.w3.org/2000/svg" version="1.1" xmlns:xlink="http://www.w3.org/1999/xlink" xmlns:svgjs="http://svgjs.com/svgjs"><rect fill="url(#pattern_mark)" transform="translate(-31,-13.21875)" width="3000" height="3000" id="rect_mark" pointer-events="none"></rect><defs id="SvgjsDefs1002"><marker id="SvgjsMarker1080" markerWidth="14" markerHeight="10" refX="10" refY="5" viewBox="0 0 14 10" orient="auto" markerUnits="userSpaceOnUse" stroke-dasharray="0,0"><path id="SvgjsPath1081" d="M0,0 L14,5 L0,10 L0,0" fill="#323232" stroke="#323232" stroke-width="1"></path></marker><pattern patternUnits="userSpaceOnUse" id="pattern_mark" width="300" height="300"><text x="-50" y="150" fill="rgba(229,229,229,0.8)" font-size="18" transform="rotate(-45, 150, 150)">wkq2786130</text></pattern></defs><g id="SvgjsG1008" transform="translate(555,84.3125)"><path id="SvgjsPath1009" d="M 0 4Q 0 0 4 0L 596 0Q 600 0 600 4L 600 36Q 600 40 596 40L 4 40Q 0 40 0 36Z" stroke="rgba(33,41,48,1)" stroke-width="1" fill-opacity="1" fill="#ffcdd2"></path><g id="SvgjsG1010"><text id="SvgjsText1011" font-family="微软雅黑" text-anchor="middle" font-size="13px" width="580px" fill="#323232" font-weight="400" align="middle" lineHeight="125%" anchor="middle" family="微软雅黑" size="13px" weight="400" font-style="" opacity="1" y="9.375" transform="rotate(0)"><tspan id="SvgjsTspan1012" dy="16" x="300"><tspan id="SvgjsTspan1013" style="text-decoration:;">SDS 占用内存 xx字节</tspan></tspan></text></g></g><g id="SvgjsG1014" transform="translate(25,88.3125)"><path id="SvgjsPath1015" d="M 0 4Q 0 0 4 0L 343 0Q 347 0 347 4L 347 36Q 347 40 343 40L 4 40Q 0 40 0 36Z" stroke="rgba(33,41,48,1)" stroke-width="1" fill-opacity="1" fill="#bbdefb"></path><g id="SvgjsG1016"><text id="SvgjsText1017" font-family="微软雅黑" text-anchor="middle" font-size="13px" width="327px" fill="#323232" font-weight="400" align="middle" lineHeight="125%" anchor="middle" family="微软雅黑" size="13px" weight="400" font-style="" opacity="1" y="9.375" transform="rotate(0)"><tspan id="SvgjsTspan1018" dy="16" x="173.5"><tspan id="SvgjsTspan1019" style="text-decoration:;">redisObject结构 占用内存 16字节</tspan></tspan></text></g></g><g id="SvgjsG1020" transform="translate(25,123.8125)"><path id="SvgjsPath1021" d="M 0 4Q 0 0 4 0L 803.75 0Q 807.75 0 807.75 4L 807.75 37Q 807.75 41 803.75 41L 4 41Q 0 41 0 37Z" stroke="rgba(33,41,48,1)" stroke-width="0.5" fill-opacity="1" fill="#ffffff"></path><g id="SvgjsG1022"><text id="SvgjsText1023" font-family="微软雅黑" text-anchor="middle" font-size="13px" width="788px" fill="#323232" font-weight="400" align="middle" lineHeight="125%" anchor="middle" family="微软雅黑" size="13px" weight="400" font-style="" opacity="1" y="9.875" transform="rotate(0)"></text></g></g><g id="SvgjsG1024" transform="translate(25,124.3125)"><path id="SvgjsPath1025" d="M 0 4Q 0 0 4 0L 60 0Q 64 0 64 4L 64 36Q 64 40 60 40L 4 40Q 0 40 0 36Z" stroke="rgba(33,41,48,1)" stroke-width="0.5" fill-opacity="1" fill="#bbdefb"></path><g id="SvgjsG1026"><text id="SvgjsText1027" font-family="微软雅黑" text-anchor="middle" font-size="12px" width="44px" fill="#323232" font-weight="400" align="middle" lineHeight="125%" anchor="middle" family="微软雅黑" size="12px" weight="400" font-style="" opacity="1" y="2.5" transform="rotate(0)"><tspan id="SvgjsTspan1028" dy="15" x="32"><tspan id="SvgjsTspan1029" style="text-decoration:;font-size: inherit;">type</tspan></tspan><tspan id="SvgjsTspan1030" dy="15" x="32"><tspan id="SvgjsTspan1031" style="text-decoration:;">4 bits</tspan></tspan></text></g></g><g id="SvgjsG1032" transform="translate(89,124.3125)"><path id="SvgjsPath1033" d="M 0 4Q 0 0 4 0L 60 0Q 64 0 64 4L 64 36Q 64 40 60 40L 4 40Q 0 40 0 36Z" stroke="rgba(33,41,48,1)" stroke-width="0.5" fill-opacity="1" fill="#bbdefb"></path><g id="SvgjsG1034"><text id="SvgjsText1035" font-family="微软雅黑" text-anchor="middle" font-size="12px" width="44px" fill="#323232" font-weight="400" align="middle" lineHeight="125%" anchor="middle" family="微软雅黑" size="12px" weight="400" font-style="" opacity="1" y="2.5" transform="rotate(0)"><tspan id="SvgjsTspan1036" dy="15" x="32"><tspan id="SvgjsTspan1037" style="text-decoration:;fill: rgb(50, 50, 50);">encoding</tspan></tspan><tspan id="SvgjsTspan1038" dy="15" x="32"><tspan id="SvgjsTspan1039" style="text-decoration:;fill: rgb(50, 50, 50);">4 bits</tspan></tspan></text></g></g><g id="SvgjsG1040" transform="translate(153,124.3125)"><path id="SvgjsPath1041" d="M 0 4Q 0 0 4 0L 56 0Q 60 0 60 4L 60 36Q 60 40 56 40L 4 40Q 0 40 0 36Z" stroke="rgba(33,41,48,1)" stroke-width="0.5" fill-opacity="1" fill="#bbdefb"></path><g id="SvgjsG1042"><text id="SvgjsText1043" font-family="微软雅黑" text-anchor="middle" font-size="12px" width="40px" fill="#323232" font-weight="400" align="middle" lineHeight="125%" anchor="middle" family="微软雅黑" size="12px" weight="400" font-style="" opacity="1" y="2.5" transform="rotate(0)"><tspan id="SvgjsTspan1044" dy="15" x="30"><tspan id="SvgjsTspan1045" style="text-decoration:;">lru</tspan></tspan><tspan id="SvgjsTspan1046" dy="15" x="30"><tspan id="SvgjsTspan1047" style="text-decoration:;fill: rgb(50, 50, 50);">24 bits</tspan></tspan></text></g></g><g id="SvgjsG1048" transform="translate(213,124.3125)"><path id="SvgjsPath1049" d="M 0 4Q 0 0 4 0L 76 0Q 80 0 80 4L 80 36Q 80 40 76 40L 4 40Q 0 40 0 36Z" stroke="rgba(33,41,48,1)" stroke-width="0.5" fill-opacity="1" fill="#bbdefb"></path><g id="SvgjsG1050"><text id="SvgjsText1051" font-family="微软雅黑" text-anchor="middle" font-size="12px" width="60px" fill="#323232" font-weight="400" align="middle" lineHeight="125%" anchor="middle" family="微软雅黑" size="12px" weight="400" font-style="" opacity="1" y="2.5" transform="rotate(0)"><tspan id="SvgjsTspan1052" dy="15" x="40"><tspan id="SvgjsTspan1053" style="text-decoration:;">refcount</tspan></tspan><tspan id="SvgjsTspan1054" dy="15" x="40"><tspan id="SvgjsTspan1055" style="text-decoration:;fill: rgb(50, 50, 50);">4字节</tspan></tspan></text></g></g><g id="SvgjsG1056" transform="translate(293,124.3125)"><path id="SvgjsPath1057" d="M 0 4Q 0 0 4 0L 76 0Q 80 0 80 4L 80 36Q 80 40 76 40L 4 40Q 0 40 0 36Z" stroke="rgba(33,41,48,1)" stroke-width="0.5" fill-opacity="1" fill="#bbdefb"></path><g id="SvgjsG1058"><text id="SvgjsText1059" font-family="微软雅黑" text-anchor="middle" font-size="12px" width="60px" fill="#323232" font-weight="400" align="middle" lineHeight="125%" anchor="middle" family="微软雅黑" size="12px" weight="400" font-style="" opacity="1" y="2.5" transform="rotate(0)"><tspan id="SvgjsTspan1060" dy="15" x="40"><tspan id="SvgjsTspan1061" style="text-decoration:;">*ptr</tspan></tspan><tspan id="SvgjsTspan1062" dy="15" x="40"><tspan id="SvgjsTspan1063" style="text-decoration:;fill: rgb(50, 50, 50);">8字节</tspan></tspan></text></g></g><g id="SvgjsG1064" transform="translate(337.25,222.5625)"><path id="SvgjsPath1065" d="M 0 0L 277 0L 277 44L 0 44Z" stroke="none" fill="none"></path><g id="SvgjsG1066"><text id="SvgjsText1067" font-family="微软雅黑" text-anchor="middle" font-size="13px" width="277px" fill="#323232" font-weight="400" align="middle" lineHeight="125%" anchor="middle" family="微软雅黑" size="13px" weight="400" font-style="" opacity="1" y="11.375" transform="rotate(0)"><tspan id="SvgjsTspan1068" dy="16" x="138.5"><tspan id="SvgjsTspan1069" style="text-decoration:;">结构仅供参考，未严格按照内存大小比例画画</tspan></tspan></text></g></g><g id="SvgjsG1070" transform="translate(222.0625,25)"><path id="SvgjsPath1071" d="M 0 0L 447.875 0L 447.875 63.625L 0 63.625Z" stroke="none" fill="none"></path><g id="SvgjsG1072"><text id="SvgjsText1073" font-family="微软雅黑" text-anchor="middle" font-size="16px" width="448px" fill="#323232" font-weight="700" align="middle" lineHeight="125%" anchor="middle" family="微软雅黑" size="16px" weight="700" font-style="" opacity="1" y="17.8125" transform="rotate(0)"><tspan id="SvgjsTspan1074" dy="20" x="224"><tspan id="SvgjsTspan1075" style="text-decoration:;">redisObject  encoding-raw</tspan><tspan id="SvgjsTspan1076" style="text-decoration:;fill: rgb(50, 50, 50);">-</tspan><tspan id="SvgjsTspan1077" style="text-decoration:;">str 内存空间逻辑分布图</tspan></tspan></text></g></g><g id="SvgjsG1078"><path id="SvgjsPath1079" d="M333.20609101752495 164.4540149903562C 407 218.8125 500 217.8125 553.5529142706151 164.3125" stroke="#323232" stroke-width="2" fill="none" marker-end="url(#SvgjsMarker1080)"></path></g><g id="SvgjsG1082" transform="translate(412.25,124.3125)"><path id="SvgjsPath1083" d="M 0 0L 100 0L 100 40L 0 40Z" stroke="none" fill="none"></path><g id="SvgjsG1084"><text id="SvgjsText1085" font-family="微软雅黑" text-anchor="middle" font-size="12px" width="100px" fill="#ba68c8" font-weight="700" align="middle" lineHeight="125%" anchor="middle" family="微软雅黑" size="12px" weight="700" font-style="" opacity="1" y="2.5" transform="rotate(0)"><tspan id="SvgjsTspan1086" dy="15" x="50"><tspan id="SvgjsTspan1087" style="text-decoration:;">内存上不连续</tspan></tspan><tspan id="SvgjsTspan1088" dy="15" x="50"><tspan id="SvgjsTspan1089" style="text-decoration:;">是2个内存地址</tspan></tspan></text></g></g><g id="SvgjsG1090" transform="translate(555,124.3125)"><path id="SvgjsPath1091" d="M 0 4Q 0 0 4 0L 596 0Q 600 0 600 4L 600 36Q 600 40 596 40L 4 40Q 0 40 0 36Z" stroke="rgba(33,41,48,1)" stroke-width="1" fill-opacity="1" fill="#bbdefb"></path><g id="SvgjsG1092"><text id="SvgjsText1093" font-family="微软雅黑" text-anchor="middle" font-size="13px" width="580px" fill="#323232" font-weight="400" align="middle" lineHeight="125%" anchor="middle" family="微软雅黑" size="13px" weight="400" font-style="" opacity="1" y="9.375" transform="rotate(0)"></text></g></g><g id="SvgjsG1094" transform="translate(555,124.3125)"><path id="SvgjsPath1095" d="M 0 4Q 0 0 4 0L 76 0Q 80 0 80 4L 80 36Q 80 40 76 40L 4 40Q 0 40 0 36Z" stroke="rgba(33,41,48,1)" stroke-width="0.5" fill-opacity="1" fill="#b8d8a1"></path><g id="SvgjsG1096"><text id="SvgjsText1097" font-family="微软雅黑" text-anchor="middle" font-size="12px" width="60px" fill="#323232" font-weight="400" align="middle" lineHeight="125%" anchor="middle" family="微软雅黑" size="12px" weight="400" font-style="" opacity="1" y="2.5" transform="rotate(0)"><tspan id="SvgjsTspan1098" dy="15" x="40"><tspan id="SvgjsTspan1099" style="text-decoration:;">len</tspan></tspan><tspan id="SvgjsTspan1100" dy="15" x="40"><tspan id="SvgjsTspan1101" style="text-decoration:;font-size: inherit;">1/2/3/4字节</tspan></tspan></text></g></g><g id="SvgjsG1102" transform="translate(635,124.3125)"><path id="SvgjsPath1103" d="M 0 4Q 0 0 4 0L 76 0Q 80 0 80 4L 80 36Q 80 40 76 40L 4 40Q 0 40 0 36Z" stroke="rgba(33,41,48,1)" stroke-width="0.5" fill-opacity="1" fill="#b8d8a1"></path><g id="SvgjsG1104"><text id="SvgjsText1105" font-family="微软雅黑" text-anchor="middle" font-size="12px" width="60px" fill="#323232" font-weight="400" align="middle" lineHeight="125%" anchor="middle" family="微软雅黑" size="12px" weight="400" font-style="" opacity="1" y="2.5" transform="rotate(0)"><tspan id="SvgjsTspan1106" dy="15" x="40"><tspan id="SvgjsTspan1107" style="text-decoration:;">alloc</tspan></tspan><tspan id="SvgjsTspan1108" dy="15" x="40"><tspan id="SvgjsTspan1109" style="text-decoration:;fill: rgb(50, 50, 50);">1/2/3/4字节</tspan></tspan></text></g></g><g id="SvgjsG1110" transform="translate(715,124.3125)"><path id="SvgjsPath1111" d="M 0 4Q 0 0 4 0L 76 0Q 80 0 80 4L 80 36Q 80 40 76 40L 4 40Q 0 40 0 36Z" stroke="rgba(33,41,48,1)" stroke-width="0.5" fill-opacity="1" fill="#b8d8a1"></path><g id="SvgjsG1112"><text id="SvgjsText1113" font-family="微软雅黑" text-anchor="middle" font-size="12px" width="60px" fill="#323232" font-weight="400" align="middle" lineHeight="125%" anchor="middle" family="微软雅黑" size="12px" weight="400" font-style="" opacity="1" y="2.5" transform="rotate(0)"><tspan id="SvgjsTspan1114" dy="15" x="40"><tspan id="SvgjsTspan1115" style="text-decoration:;">flags</tspan></tspan><tspan id="SvgjsTspan1116" dy="15" x="40"><tspan id="SvgjsTspan1117" style="text-decoration:;fill: rgb(50, 50, 50);">1字节</tspan></tspan></text></g></g><g id="SvgjsG1118" transform="translate(966,124.3125)"><path id="SvgjsPath1119" d="M 0 4Q 0 0 4 0L 36 0Q 40 0 40 4L 40 36Q 40 40 36 40L 4 40Q 0 40 0 36Z" stroke="rgba(33,41,48,1)" stroke-width="0.5" fill-opacity="1" fill="#b8d8a1"></path><g id="SvgjsG1120"><text id="SvgjsText1121" font-family="微软雅黑" text-anchor="middle" font-size="12px" width="20px" fill="#323232" font-weight="400" align="middle" lineHeight="125%" anchor="middle" family="微软雅黑" size="12px" weight="400" font-style="" opacity="1" y="2.5" transform="rotate(0)"><tspan id="SvgjsTspan1122" dy="15" x="20"><tspan id="SvgjsTspan1123" style="text-decoration:;">\0</tspan></tspan><tspan id="SvgjsTspan1124" dy="15" x="20"><tspan id="SvgjsTspan1125" style="text-decoration:;">1bit</tspan></tspan></text></g></g><g id="SvgjsG1126" transform="translate(798,124.3125)"><path id="SvgjsPath1127" d="M 0 0L 170 0L 170 40L 0 40Z" stroke="none" fill="none"></path><g id="SvgjsG1128"><text id="SvgjsText1129" font-family="微软雅黑" text-anchor="middle" font-size="13px" width="170px" fill="#323232" font-weight="400" align="middle" lineHeight="125%" anchor="middle" family="微软雅黑" size="13px" weight="400" font-style="" opacity="1" y="0.875" transform="rotate(0)"><tspan id="SvgjsTspan1130" dy="16" x="85"><tspan id="SvgjsTspan1131" style="text-decoration:;">字符串实际长度</tspan></tspan><tspan id="SvgjsTspan1132" dy="16" x="85"><tspan id="SvgjsTspan1133" style="text-decoration:;">xx字节</tspan></tspan></text></g></g><g id="SvgjsG1134" transform="translate(1022,124.3125)"><path id="SvgjsPath1135" d="M 0 0L 123 0L 123 40L 0 40Z" stroke="none" fill="none"></path><g id="SvgjsG1136"><text id="SvgjsText1137" font-family="微软雅黑" text-anchor="middle" font-size="13px" width="123px" fill="#323232" font-weight="400" align="middle" lineHeight="125%" anchor="middle" family="微软雅黑" size="13px" weight="400" font-style="" opacity="1" y="0.875" transform="rotate(0)"><tspan id="SvgjsTspan1138" dy="16" x="61.5"><tspan id="SvgjsTspan1139" style="text-decoration:;">分配未使用内存空间</tspan></tspan><tspan id="SvgjsTspan1140" dy="16" x="61.5"><tspan id="SvgjsTspan1141" style="text-decoration:;"> </tspan></tspan></text></g></g></svg>