<svg id="SvgjsSvg1001" width="650" height="90" xmlns="http://www.w3.org/2000/svg" version="1.1" xmlns:xlink="http://www.w3.org/1999/xlink" xmlns:svgjs="http://svgjs.com/svgjs"><rect fill="url(#pattern_mark)" transform="translate(4,-7)" width="3000" height="3000" id="rect_mark" pointer-events="none"></rect><defs id="SvgjsDefs1002"><pattern patternUnits="userSpaceOnUse" id="pattern_mark" width="300" height="300"><text x="-50" y="150" fill="rgba(229,229,229,0.8)" font-size="18" transform="rotate(-45, 150, 150)">wkq2786130</text></pattern></defs><g id="SvgjsG1008" transform="translate(25,25)"><path id="SvgjsPath1009" d="M 0 4Q 0 0 4 0L 596 0Q 600 0 600 4L 600 36Q 600 40 596 40L 4 40Q 0 40 0 36Z" stroke="rgba(33,41,48,1)" stroke-width="1" fill-opacity="1" fill="#bbdefb"></path><g id="SvgjsG1010"><text id="SvgjsText1011" font-family="微软雅黑" text-anchor="middle" font-size="13px" width="580px" fill="#323232" font-weight="400" align="middle" lineHeight="125%" anchor="middle" family="微软雅黑" size="13px" weight="400" font-style="" opacity="1" y="9.375" transform="rotate(0)"></text></g></g><g id="SvgjsG1012" transform="translate(25,25)"><path id="SvgjsPath1013" d="M 0 4Q 0 0 4 0L 76 0Q 80 0 80 4L 80 36Q 80 40 76 40L 4 40Q 0 40 0 36Z" stroke="rgba(33,41,48,1)" stroke-width="0.5" fill-opacity="1" fill="#b8d8a1"></path><g id="SvgjsG1014"><text id="SvgjsText1015" font-family="微软雅黑" text-anchor="middle" font-size="12px" width="60px" fill="#323232" font-weight="400" align="middle" lineHeight="125%" anchor="middle" family="微软雅黑" size="12px" weight="400" font-style="" opacity="1" y="2.5" transform="rotate(0)"><tspan id="SvgjsTspan1016" dy="15" x="40"><tspan id="SvgjsTspan1017" style="text-decoration:;">len</tspan></tspan><tspan id="SvgjsTspan1018" dy="15" x="40"><tspan id="SvgjsTspan1019" style="text-decoration:;font-size: inherit;">1/2/3/4字节</tspan></tspan></text></g></g><g id="SvgjsG1020" transform="translate(105,25)"><path id="SvgjsPath1021" d="M 0 4Q 0 0 4 0L 76 0Q 80 0 80 4L 80 36Q 80 40 76 40L 4 40Q 0 40 0 36Z" stroke="rgba(33,41,48,1)" stroke-width="0.5" fill-opacity="1" fill="#b8d8a1"></path><g id="SvgjsG1022"><text id="SvgjsText1023" font-family="微软雅黑" text-anchor="middle" font-size="12px" width="60px" fill="#323232" font-weight="400" align="middle" lineHeight="125%" anchor="middle" family="微软雅黑" size="12px" weight="400" font-style="" opacity="1" y="2.5" transform="rotate(0)"><tspan id="SvgjsTspan1024" dy="15" x="40"><tspan id="SvgjsTspan1025" style="text-decoration:;">alloc</tspan></tspan><tspan id="SvgjsTspan1026" dy="15" x="40"><tspan id="SvgjsTspan1027" style="text-decoration:;fill: rgb(50, 50, 50);">1/2/3/4字节</tspan></tspan></text></g></g><g id="SvgjsG1028" transform="translate(185,25)"><path id="SvgjsPath1029" d="M 0 4Q 0 0 4 0L 76 0Q 80 0 80 4L 80 36Q 80 40 76 40L 4 40Q 0 40 0 36Z" stroke="rgba(33,41,48,1)" stroke-width="0.5" fill-opacity="1" fill="#b8d8a1"></path><g id="SvgjsG1030"><text id="SvgjsText1031" font-family="微软雅黑" text-anchor="middle" font-size="12px" width="60px" fill="#323232" font-weight="400" align="middle" lineHeight="125%" anchor="middle" family="微软雅黑" size="12px" weight="400" font-style="" opacity="1" y="2.5" transform="rotate(0)"><tspan id="SvgjsTspan1032" dy="15" x="40"><tspan id="SvgjsTspan1033" style="text-decoration:;">flags</tspan></tspan><tspan id="SvgjsTspan1034" dy="15" x="40"><tspan id="SvgjsTspan1035" style="text-decoration:;fill: rgb(50, 50, 50);">1字节</tspan></tspan></text></g></g><g id="SvgjsG1036" transform="translate(436,25)"><path id="SvgjsPath1037" d="M 0 4Q 0 0 4 0L 36 0Q 40 0 40 4L 40 36Q 40 40 36 40L 4 40Q 0 40 0 36Z" stroke="rgba(33,41,48,1)" stroke-width="0.5" fill-opacity="1" fill="#b8d8a1"></path><g id="SvgjsG1038"><text id="SvgjsText1039" font-family="微软雅黑" text-anchor="middle" font-size="12px" width="20px" fill="#323232" font-weight="400" align="middle" lineHeight="125%" anchor="middle" family="微软雅黑" size="12px" weight="400" font-style="" opacity="1" y="2.5" transform="rotate(0)"><tspan id="SvgjsTspan1040" dy="15" x="20"><tspan id="SvgjsTspan1041" style="text-decoration:;">\0</tspan></tspan><tspan id="SvgjsTspan1042" dy="15" x="20"><tspan id="SvgjsTspan1043" style="text-decoration:;">1bit</tspan></tspan></text></g></g><g id="SvgjsG1044" transform="translate(268,25)"><path id="SvgjsPath1045" d="M 0 0L 170 0L 170 40L 0 40Z" stroke="none" fill="none"></path><g id="SvgjsG1046"><text id="SvgjsText1047" font-family="微软雅黑" text-anchor="middle" font-size="13px" width="170px" fill="#323232" font-weight="400" align="middle" lineHeight="125%" anchor="middle" family="微软雅黑" size="13px" weight="400" font-style="" opacity="1" y="0.875" transform="rotate(0)"><tspan id="SvgjsTspan1048" dy="16" x="85"><tspan id="SvgjsTspan1049" style="text-decoration:;">SDS 字符串实际长度</tspan></tspan><tspan id="SvgjsTspan1050" dy="16" x="85"><tspan id="SvgjsTspan1051" style="text-decoration:;">xx字节</tspan></tspan></text></g></g><g id="SvgjsG1052" transform="translate(492,25)"><path id="SvgjsPath1053" d="M 0 0L 123 0L 123 40L 0 40Z" stroke="none" fill="none"></path><g id="SvgjsG1054"><text id="SvgjsText1055" font-family="微软雅黑" text-anchor="middle" font-size="13px" width="123px" fill="#323232" font-weight="400" align="middle" lineHeight="125%" anchor="middle" family="微软雅黑" size="13px" weight="400" font-style="" opacity="1" y="0.875" transform="rotate(0)"><tspan id="SvgjsTspan1056" dy="16" x="61.5"><tspan id="SvgjsTspan1057" style="text-decoration:;">分配未使用内存空间</tspan></tspan><tspan id="SvgjsTspan1058" dy="16" x="61.5"><tspan id="SvgjsTspan1059" style="text-decoration:;"> </tspan></tspan></text></g></g></svg>